<svg width="148" height="42" viewBox="0 0 148 42" fill="none" xmlns="http://www.w3.org/2000/svg">
<path d="M6.45195 41L7.55195 32.75H13.272L14.372 41H20.147L14.042 0.574999H6.78195L0.676953 41H6.45195ZM12.447 26.48H8.37695L10.082 13.72L10.247 12.675H10.577L10.742 13.72L12.447 26.48ZM41.0482 27.14V32.695C41.0482 33.3 40.9932 33.795 40.8282 34.18C40.5532 35.005 40.0582 35.665 38.7932 35.665C38.2982 35.665 37.9132 35.5 37.6382 35.225C37.0882 34.62 36.7582 33.85 36.7032 32.695V8.88C36.7582 8.33 36.8132 7.835 36.9782 7.395C37.2532 6.68 37.7482 5.91 38.7932 5.91C39.3982 5.91 39.8932 6.075 40.1682 6.35C40.7732 7.01 41.0482 7.78 41.0482 8.88V14.435H46.6032V8.88C46.5482 7.285 46.2182 5.8 45.6132 4.535C45.1182 3.435 44.3482 2.335 43.2482 1.51C42.1482 0.684998 40.6632 0.134998 38.6832 0.134998C36.7032 0.134998 35.1632 0.684998 34.0632 1.51C32.9632 2.335 32.2482 3.435 31.7532 4.535C31.1482 5.8 30.8182 7.285 30.7632 8.88V32.695C30.8182 34.345 31.1482 35.83 31.7532 37.095C32.2482 38.195 32.9632 39.24 34.0632 40.065C35.1632 40.945 36.7032 41.44 38.6832 41.44C40.6632 41.44 42.1482 40.945 43.2482 40.065C44.3482 39.24 45.1182 38.195 45.6132 37.095C46.2182 35.83 46.5482 34.345 46.6032 32.695V27.14H41.0482ZM61.9319 6.68V41H67.8719V6.68H73.4819V0.574999H56.3219V6.68H61.9319ZM84.0643 41H90.0043V0.574999H84.0643V41ZM118.135 8.88C118.08 7.285 117.75 5.8 117.145 4.535C116.65 3.435 115.88 2.335 114.78 1.51C113.68 0.684998 112.195 0.134998 110.215 0.134998C108.235 0.134998 106.695 0.684998 105.595 1.51C104.495 2.335 103.78 3.435 103.285 4.535C102.68 5.8 102.35 7.285 102.295 8.88V32.695C102.35 34.345 102.68 35.83 103.285 37.095C103.78 38.195 104.495 39.24 105.595 40.065C106.695 40.945 108.235 41.44 110.215 41.44C112.195 41.44 113.68 40.945 114.78 40.065C115.88 39.24 116.65 38.195 117.145 37.095C117.75 35.83 118.08 34.345 118.135 32.695V8.88ZM112.195 32.695C112.195 33.3 112.14 33.795 111.975 34.18C111.755 35.005 111.26 35.665 110.215 35.665C109.72 35.665 109.335 35.5 109.06 35.225C108.51 34.62 108.235 33.85 108.235 32.695V8.88C108.235 8.33 108.29 7.835 108.455 7.395C108.675 6.68 109.17 5.91 110.215 5.91C110.71 5.91 111.15 6.075 111.425 6.35C111.975 7.01 112.195 7.78 112.195 8.88V32.695ZM142.419 41H147.699V0.574999H142.254V23.51H141.924L141.429 21.64L135.654 0.574999H130.374V41H135.819V18.065H136.149L136.644 19.935L142.419 41Z" fill="white"/>
</svg>
