<svg width="323" height="60" viewBox="0 0 323 60" fill="none" xmlns="http://www.w3.org/2000/svg">
<path d="M31.0861 0.341164L55.5202 58.785H48.5037L29.4351 8.1832L31.0861 0.341164ZM13.3383 53.2543C12.9531 54.3549 12.8981 55.2905 13.1732 56.0609C13.4484 56.8314 13.8886 57.4367 14.494 57.877C15.1544 58.2622 15.8147 58.4548 16.4751 58.4548H17.2181V59.2803H0.625954V58.4548C0.625954 58.4548 0.763533 58.4548 1.03869 58.4548C1.25882 58.4548 1.36888 58.4548 1.36888 58.4548C2.63462 58.4548 3.92786 58.0696 5.24863 57.2991C6.62442 56.4736 7.75258 55.1254 8.63309 53.2543H13.3383ZM31.0861 0.341164L31.829 6.11951L11.1095 59.0326H6.15665L27.2889 8.84359C27.2889 8.84359 27.4265 8.5134 27.7016 7.85301C28.0318 7.1376 28.3895 6.2846 28.7747 5.29403C29.215 4.30346 29.5727 3.3404 29.8479 2.40486C30.1781 1.46932 30.3432 0.781419 30.3432 0.341164H31.0861ZM42.7253 36.7447V39.2212H16.8879V36.7447H42.7253ZM46.44 53.2543H53.2089C54.0344 55.1254 55.135 56.4736 56.5108 57.2991C57.8866 58.0696 59.2074 58.4548 60.4731 58.4548C60.4731 58.4548 60.5832 58.4548 60.8033 58.4548C61.0234 58.4548 61.1335 58.4548 61.1335 58.4548V59.2803H42.5602V58.4548H43.3032C44.3488 58.4548 45.2843 58.0145 46.1098 57.134C46.9353 56.1985 47.0453 54.9052 46.44 53.2543ZM66.459 23.8673L95.2351 54.5751L95.6809 59.9737L66.9047 29.3154L66.459 23.8673ZM66.558 55.7637V59.2803H62.4471V58.785C62.4471 58.785 62.5957 58.785 62.8929 58.785C63.1901 58.785 63.3552 58.785 63.3882 58.785C64.2137 58.785 64.9236 58.4878 65.5179 57.8935C66.1123 57.2991 66.4094 56.5892 66.4094 55.7637H66.558ZM68.6878 55.7637C68.6878 56.5892 68.9849 57.2991 69.5793 57.8935C70.1736 58.4878 70.8835 58.785 71.709 58.785C71.742 58.785 71.9071 58.785 72.2043 58.785C72.5015 58.785 72.65 58.785 72.65 58.785V59.2803H68.5392V55.7637H68.6878ZM66.459 23.8673L68.6382 26.6409L68.6878 59.2803H66.4094V30.0584C66.4094 28.3744 66.3269 26.9215 66.1618 25.6998C66.0297 24.4781 65.9637 23.8673 65.9637 23.8673H66.459ZM95.6809 24.6102V53.634C95.6809 54.6906 95.7139 55.7142 95.7799 56.7048C95.846 57.6623 95.912 58.4548 95.978 59.0822C96.0771 59.6765 96.1266 59.9737 96.1266 59.9737H95.6809L93.4521 57.3487V24.6102H95.6809ZM99.6432 24.6102V25.1055C99.6432 25.1055 99.4946 25.1055 99.1974 25.1055C98.9002 25.1055 98.7517 25.1055 98.7517 25.1055C97.9262 25.1055 97.2163 25.4027 96.6219 25.997C96.0276 26.5583 95.7139 27.2682 95.6809 28.1267H95.5323V24.6102H99.6432ZM89.4403 24.6102H93.5511V28.1267H93.4521C93.4191 27.2682 93.1054 26.5583 92.511 25.997C91.9497 25.4027 91.2398 25.1055 90.3813 25.1055C90.3813 25.1055 90.2327 25.1055 89.9355 25.1055C89.6384 25.1055 89.4733 25.1055 89.4403 25.1055V24.6102ZM111.384 24.6102V59.2803H108.165V24.6102H111.384ZM108.313 55.6647V59.2803H104.351V58.785C104.351 58.785 104.45 58.785 104.648 58.785C104.879 58.785 104.995 58.785 104.995 58.785C105.853 58.785 106.58 58.4878 107.174 57.8935C107.802 57.2661 108.132 56.5232 108.165 55.6647H108.313ZM108.313 28.2258H108.165C108.132 27.3673 107.802 26.6409 107.174 26.0465C106.58 25.4192 105.853 25.1055 104.995 25.1055C104.995 25.1055 104.879 25.1055 104.648 25.1055C104.45 25.1055 104.351 25.1055 104.351 25.1055V24.6102H108.313V28.2258ZM111.236 55.6647H111.384C111.417 56.5232 111.731 57.2661 112.325 57.8935C112.953 58.4878 113.696 58.785 114.554 58.785C114.554 58.785 114.653 58.785 114.851 58.785C115.049 58.785 115.165 58.785 115.198 58.785V59.2803H111.236V55.6647ZM111.236 28.2258V24.6102H115.198V25.1055C115.165 25.1055 115.049 25.1055 114.851 25.1055C114.653 25.1055 114.554 25.1055 114.554 25.1055C113.696 25.1055 112.953 25.4192 112.325 26.0465C111.731 26.6409 111.417 27.3673 111.384 28.2258H111.236ZM154.815 23.9168L155.212 27.2352L142.78 54.9218C142.78 54.9218 142.648 55.2024 142.384 55.7637C142.153 56.3251 141.905 57.002 141.641 57.7944C141.377 58.5539 141.195 59.2803 141.096 59.9737H140.601L139.907 56.8534L154.815 23.9168ZM124.355 55.6647V59.2803H118.858V58.785C118.891 58.785 119.023 58.785 119.254 58.785C119.518 58.785 119.65 58.785 119.65 58.785C120.542 58.785 121.334 58.5208 122.027 57.9925C122.721 57.4312 123.134 56.6553 123.266 55.6647H124.355ZM125.792 56.4571C125.792 56.4902 125.792 56.5232 125.792 56.5562C125.792 56.5892 125.792 56.6387 125.792 56.7048C125.792 57.2331 125.973 57.7284 126.336 58.1906C126.733 58.6199 127.195 58.8345 127.723 58.8345H128.466V59.2803H125.445V56.4571H125.792ZM126.98 23.9168H127.476L128.466 26.839L125.544 59.2803H122.869L126.98 23.9168ZM127.476 23.9168L141.74 54.7732L140.601 59.9737L126.535 29.464L127.476 23.9168ZM155.261 23.9168L159.521 59.2803H155.657L152.933 29.2659L154.815 23.9168H155.261ZM158.035 55.6647H159.075C159.24 56.6553 159.669 57.4312 160.363 57.9925C161.056 58.5208 161.832 58.785 162.69 58.785C162.69 58.785 162.823 58.785 163.087 58.785C163.351 58.785 163.483 58.785 163.483 58.785V59.2803H158.035V55.6647ZM155.41 56.4571H155.756V59.2803H152.735V58.8345H153.478C154.039 58.8345 154.502 58.6199 154.865 58.1906C155.228 57.7284 155.41 57.2331 155.41 56.7048C155.41 56.6387 155.41 56.5892 155.41 56.5562C155.41 56.5232 155.41 56.4902 155.41 56.4571ZM181.99 23.9168L196.65 58.9831H192.441L180.999 28.622L181.99 23.9168ZM171.341 55.6647C171.11 56.3251 171.077 56.8864 171.242 57.3487C171.407 57.8109 171.672 58.1741 172.035 58.4383C172.431 58.6694 172.827 58.785 173.223 58.785H173.669V59.2803H163.714V58.785C163.714 58.785 163.796 58.785 163.962 58.785C164.094 58.785 164.16 58.785 164.16 58.785C164.919 58.785 165.695 58.5539 166.488 58.0916C167.313 57.5963 167.99 56.7873 168.518 55.6647H171.341ZM181.99 23.9168L182.436 27.3838L170.004 59.1317H167.032L179.712 29.0183C179.712 29.0183 179.794 28.8201 179.959 28.4239C180.157 27.9947 180.372 27.4829 180.603 26.8885C180.867 26.2942 181.082 25.7163 181.247 25.155C181.445 24.5937 181.544 24.181 181.544 23.9168H181.99ZM188.974 45.7589V47.2448H173.471V45.7589H188.974ZM191.202 55.6647H195.264C195.759 56.7873 196.419 57.5963 197.245 58.0916C198.07 58.5539 198.863 58.785 199.622 58.785C199.622 58.785 199.688 58.785 199.82 58.785C199.952 58.785 200.018 58.785 200.018 58.785V59.2803H188.874V58.785H189.32C189.948 58.785 190.509 58.5208 191.004 57.9925C191.499 57.4312 191.566 56.6553 191.202 55.6647ZM212.926 24.7588V59.2803H209.706V24.7588H212.926ZM225.655 24.5607V26.0465H196.977V24.5607H225.655ZM225.655 25.898V29.9098L225.159 29.8602V29.0183C225.159 28.1928 224.862 27.4994 224.268 26.9381C223.706 26.3767 223.03 26.0796 222.237 26.0465V25.898H225.655ZM225.655 23.6692V25.1055L219.612 24.5607C220.338 24.5607 221.098 24.5111 221.89 24.4121C222.716 24.313 223.475 24.1975 224.169 24.0654C224.862 23.9333 225.357 23.8012 225.655 23.6692ZM209.855 55.6647V59.2803H205.893V58.785C205.893 58.785 205.992 58.785 206.19 58.785C206.421 58.785 206.536 58.785 206.536 58.785C207.395 58.785 208.121 58.4878 208.716 57.8935C209.343 57.2661 209.673 56.5232 209.706 55.6647H209.855ZM212.777 55.6647H212.926C212.959 56.5232 213.272 57.2661 213.867 57.8935C214.494 58.4878 215.237 58.785 216.096 58.785C216.096 58.785 216.195 58.785 216.393 58.785C216.624 58.785 216.739 58.785 216.739 58.785V59.2803H212.777V55.6647ZM200.395 25.898V26.0465C199.569 26.0796 198.876 26.3767 198.315 26.9381C197.753 27.4994 197.473 28.1928 197.473 29.0183V29.8602L196.977 29.9098V25.898H200.395ZM196.977 23.6692C197.308 23.8012 197.803 23.9333 198.463 24.0654C199.157 24.1975 199.916 24.313 200.742 24.4121C201.567 24.5111 202.327 24.5607 203.02 24.5607L196.977 25.1055V23.6692ZM236.609 24.6102V59.2803H233.389V24.6102H236.609ZM233.538 55.6647V59.2803H229.575V58.785C229.575 58.785 229.674 58.785 229.873 58.785C230.104 58.785 230.219 58.785 230.219 58.785C231.078 58.785 231.804 58.4878 232.399 57.8935C233.026 57.2661 233.356 56.5232 233.389 55.6647H233.538ZM233.538 28.2258H233.389C233.356 27.3673 233.026 26.6409 232.399 26.0465C231.804 25.4192 231.078 25.1055 230.219 25.1055C230.219 25.1055 230.104 25.1055 229.873 25.1055C229.674 25.1055 229.575 25.1055 229.575 25.1055V24.6102H233.538V28.2258ZM236.46 55.6647H236.609C236.642 56.5232 236.955 57.2661 237.55 57.8935C238.177 58.4878 238.92 58.785 239.778 58.785C239.778 58.785 239.877 58.785 240.076 58.785C240.274 58.785 240.389 58.785 240.422 58.785V59.2803H236.46V55.6647ZM236.46 28.2258V24.6102H240.422V25.1055C240.389 25.1055 240.274 25.1055 240.076 25.1055C239.877 25.1055 239.778 25.1055 239.778 25.1055C238.92 25.1055 238.177 25.4192 237.55 26.0465C236.955 26.6409 236.642 27.3673 236.609 28.2258H236.46ZM263.619 23.9168C267.152 23.9168 270.256 24.6762 272.931 26.1951C275.605 27.681 277.686 29.7777 279.171 32.4853C280.69 35.1928 281.45 38.3462 281.45 41.9452C281.45 45.5443 280.69 48.6976 279.171 51.4052C277.686 54.1128 275.605 56.226 272.931 57.7449C270.256 59.2307 267.152 59.9737 263.619 59.9737C260.119 59.9737 257.032 59.2307 254.358 57.7449C251.683 56.226 249.586 54.1128 248.067 51.4052C246.582 48.6976 245.839 45.5443 245.839 41.9452C245.839 38.3462 246.582 35.1928 248.067 32.4853C249.586 29.7777 251.683 27.681 254.358 26.1951C257.032 24.6762 260.119 23.9168 263.619 23.9168ZM263.619 58.4878C266.426 58.4878 268.869 57.7944 270.95 56.4076C273.063 55.0208 274.697 53.0892 275.853 50.6128C277.042 48.1363 277.636 45.2472 277.636 41.9452C277.636 38.6433 277.042 35.7542 275.853 33.2777C274.697 30.8013 273.063 28.8697 270.95 27.4829C268.869 26.0961 266.426 25.4027 263.619 25.4027C260.846 25.4027 258.402 26.0961 256.289 27.4829C254.209 28.8697 252.575 30.8013 251.386 33.2777C250.23 35.7542 249.652 38.6433 249.652 41.9452C249.652 45.2472 250.23 48.1363 251.386 50.6128C252.575 53.0892 254.209 55.0208 256.289 56.4076C258.402 57.7944 260.846 58.4878 263.619 58.4878ZM289.144 23.8673L317.921 54.5751L318.366 59.9737L289.59 29.3154L289.144 23.8673ZM289.244 55.7637V59.2803H285.133V58.785C285.133 58.785 285.281 58.785 285.578 58.785C285.876 58.785 286.041 58.785 286.074 58.785C286.899 58.785 287.609 58.4878 288.203 57.8935C288.798 57.2991 289.095 56.5892 289.095 55.7637H289.244ZM291.373 55.7637C291.373 56.5892 291.67 57.2991 292.265 57.8935C292.859 58.4878 293.569 58.785 294.395 58.785C294.428 58.785 294.593 58.785 294.89 58.785C295.187 58.785 295.336 58.785 295.336 58.785V59.2803H291.225V55.7637H291.373ZM289.144 23.8673L291.324 26.6409L291.373 59.2803H289.095V30.0584C289.095 28.3744 289.012 26.9215 288.847 25.6998C288.715 24.4781 288.649 23.8673 288.649 23.8673H289.144ZM318.366 24.6102V53.634C318.366 54.6906 318.399 55.7142 318.465 56.7048C318.531 57.6623 318.598 58.4548 318.664 59.0822C318.763 59.6765 318.812 59.9737 318.812 59.9737H318.366L316.138 57.3487V24.6102H318.366ZM322.329 24.6102V25.1055C322.329 25.1055 322.18 25.1055 321.883 25.1055C321.586 25.1055 321.437 25.1055 321.437 25.1055C320.612 25.1055 319.902 25.4027 319.307 25.997C318.713 26.5583 318.399 27.2682 318.366 28.1267H318.218V24.6102H322.329ZM312.126 24.6102H316.237V28.1267H316.138C316.105 27.2682 315.791 26.5583 315.197 25.997C314.635 25.4027 313.925 25.1055 313.067 25.1055C313.067 25.1055 312.918 25.1055 312.621 25.1055C312.324 25.1055 312.159 25.1055 312.126 25.1055V24.6102Z" fill="white"/>
</svg>
