<svg width="208" height="55" viewBox="0 0 208 55" fill="none" xmlns="http://www.w3.org/2000/svg">
<path d="M29.856 8.64258C30.1782 8.48145 30.3394 7.9891 30.3394 7.16553V6.06445H30.7959C30.8317 6.58366 30.8675 6.97754 30.9033 7.24609C30.9391 7.51465 30.957 7.69368 30.957 7.7832C30.9749 7.87272 31.0107 7.97119 31.0645 8.07861C31.1182 8.16813 31.145 8.23079 31.145 8.2666C31.1629 8.30241 31.2166 8.34717 31.3062 8.40088C31.4136 8.43669 31.4762 8.46354 31.4941 8.48145C31.5299 8.48145 31.6195 8.49935 31.7627 8.53516C31.9059 8.55306 31.9954 8.57992 32.0312 8.61572C32.085 8.63363 32.255 8.63363 32.5415 8.61572C32.828 8.59782 33.4456 8.40983 34.3945 8.05176C35.3434 7.69368 36.0148 7.38932 36.4087 7.13867C36.8026 6.87012 37.0532 6.57471 37.1606 6.25244C37.286 5.93018 37.4023 5.25879 37.5098 4.23828L37.8857 4.29199C37.8141 4.84701 37.7783 5.41097 37.7783 5.98389C37.7783 6.5389 37.8589 6.92383 38.02 7.13867C38.1991 7.33561 38.5034 7.43408 38.9331 7.43408C39.3628 7.43408 39.9805 7.38037 40.7861 7.27295L40.9204 7.70264C39.9357 7.82796 39.2822 7.96224 38.96 8.10547C38.6556 8.23079 38.4229 8.42773 38.2617 8.69629L37.8857 9.63623C37.8141 9.85107 37.7783 10.0122 37.7783 10.1196C37.7783 10.603 38.2528 11.2297 39.2017 11.9995L38.772 12.5366C37.7873 11.731 37.1517 11.3281 36.8652 11.3281C36.5967 11.3281 36.2923 11.4803 35.9521 11.7847C35.7373 11.8742 35.6299 11.9906 35.6299 12.1338C35.6299 12.2591 35.8089 12.5456 36.167 12.9932C36.543 13.4229 36.8294 14.3896 37.0264 15.8936C37.2233 17.3975 37.3218 18.6865 37.3218 19.7607L37.0532 32.0605C37.0174 32.3649 36.9816 32.7767 36.9458 33.2959C36.91 33.7972 36.8742 34.1642 36.8384 34.397C36.8026 34.6118 36.731 34.8893 36.6235 35.2295C36.4624 35.8024 36.0775 36.3037 35.4688 36.7334C35.2539 36.9124 35.1465 37.1362 35.1465 37.4048V41.2988C35.1465 41.46 35.5583 41.8986 36.3818 42.6147C37.2054 43.313 37.7246 43.6979 37.9395 43.7695C38.1722 43.8232 38.4139 43.8501 38.6646 43.8501C38.9152 43.8501 39.6672 43.4473 40.9204 42.6416L41.0815 42.9639C40.2401 43.501 39.694 43.8949 39.4434 44.1455C39.1927 44.3783 39.0405 44.6289 38.9868 44.8975V45.0049C38.9152 45.0765 38.8794 45.1839 38.8794 45.3271C38.8794 45.542 39.4613 46.0701 40.625 46.9116L40.4102 47.3145C39.4971 46.652 38.8973 46.3208 38.6108 46.3208C38.3423 46.3208 38.1364 46.3566 37.9932 46.4282L37.3218 46.9116C37.1069 47.0369 36.9995 47.3145 36.9995 47.7441L37.0532 48.4155L37.1069 50.3223H36.167V48.0664C36.167 47.4756 35.5583 47.0638 34.3408 46.8311C33.1234 46.5804 31.7 46.4014 30.0708 46.2939C28.4416 46.1865 27.3763 46.0433 26.875 45.8643C26.3737 45.6673 25.6486 45.3003 24.6997 44.7632C23.7508 44.2082 23.0078 43.8411 22.4707 43.6621L22.7124 41.6479C23.1779 41.451 23.9836 41.3525 25.1294 41.3525H26.6064C27.2331 41.3525 27.5464 41.0661 27.5464 40.4932C27.5822 39.3652 27.7344 37.6912 28.0029 35.4712C28.2894 33.2511 28.4416 31.792 28.4595 31.0938C28.4774 30.3955 28.4416 29.9837 28.3521 29.8584C28.2804 29.7152 28.1372 29.6257 27.9224 29.5898C27.618 29.5182 27.054 29.4824 26.2305 29.4824C25.4248 29.4824 24.7355 29.5361 24.1626 29.6436C23.5897 29.7331 23.2227 29.93 23.0615 30.2344C22.9004 30.5387 22.8198 31.1833 22.8198 32.168H22.1484C22.1484 31.1833 22.0768 30.5387 21.9336 30.2344C21.7904 29.93 21.4681 29.742 20.9668 29.6704C20.4834 29.5809 19.4092 29.5361 17.7441 29.5361C16.097 29.5361 15.2376 29.8494 15.166 30.4761L14.8438 38.9893C14.8079 39.4727 15.0049 40.0366 15.4346 40.6812C15.8822 41.3257 16.3298 41.6479 16.7773 41.6479C17.3503 41.6479 17.6367 41.0213 17.6367 39.7681V39.043H18.0396C18.0575 40.0277 18.1022 40.6453 18.1738 40.896C18.2633 41.1466 18.4155 41.2988 18.6304 41.3525L19.248 41.5405C19.3197 41.5763 19.4718 41.5942 19.7046 41.5942C19.9552 41.5942 20.752 41.3167 22.0947 40.7617L22.2021 41.0303C20.8594 41.6032 20 42.1224 19.624 42.5879L19.5166 42.8564C19.3376 43.0892 19.248 43.3219 19.248 43.5547L19.6777 43.3398L19.5703 43.7427C19.4271 43.7427 19.3197 43.7606 19.248 43.7964C19.3018 44.244 19.6509 44.8617 20.2954 45.6494L19.7314 46.106C18.9258 44.9959 18.2454 44.4409 17.6904 44.4409C17.1533 44.4409 16.3745 44.6558 15.354 45.0854C14.3335 45.5151 13.2414 46.0254 12.0776 46.6162C10.9318 47.207 10.1888 47.5651 9.84863 47.6904C9.50846 47.8158 9.28467 47.9232 9.17725 48.0127C8.85498 48.2812 8.63118 49.0511 8.50586 50.3223L7.96875 50.2686C8.00456 49.8747 8.02246 49.3644 8.02246 48.7378C8.02246 48.1112 7.88818 47.7979 7.61963 47.7979C7.35107 47.7979 7.11833 47.9053 6.92139 48.1201C6.74235 48.3171 6.65283 48.5588 6.65283 48.8452V49.5703C6.65283 49.8926 6.52751 50.2954 6.27686 50.7788C6.04411 51.2622 5.92773 52.0321 5.92773 53.0884V54.0283H5.7666C5.67708 52.417 5.55176 51.495 5.39062 51.2622L5.25635 50.9399C5.11312 50.7967 4.88037 50.7251 4.55811 50.7251C4.25374 50.7251 3.66292 50.8146 2.78564 50.9937L2.73193 50.7251C3.96729 50.4207 4.63867 50.1969 4.74609 50.0537C4.85352 49.9284 4.90723 49.821 4.90723 49.7314C4.92513 49.6419 5.10417 49.1138 5.44434 48.147C5.78451 47.1802 5.94564 46.6789 5.92773 46.6431L4.93408 44.9512C4.79085 44.6647 4.54915 44.4499 4.20898 44.3066C3.88672 44.1455 3.21533 43.9754 2.19482 43.7964L2.24854 43.2861C2.94678 43.4294 3.5734 43.501 4.12842 43.501C4.68343 43.501 5.27425 43.2593 5.90088 42.7759C6.54541 42.2746 6.86768 41.8986 6.86768 41.6479V32.4634C6.86768 32.159 6.71549 31.6756 6.41113 31.0132C6.12467 30.3507 5.98145 29.8584 5.98145 29.5361V21.1841C5.98145 21.0409 5.43538 20.6738 4.34326 20.083L4.82666 18.9819L5.65918 19.2505C5.99935 19.2505 6.28581 19.1341 6.51855 18.9014C6.7513 18.6507 6.86768 18.3643 6.86768 18.042L6.4917 13.3154C6.4917 13.2259 6.39323 13.0827 6.19629 12.8857L4.10156 11.0059C3.72559 10.6836 3.19743 10.5225 2.51709 10.5225C1.85465 10.5225 1.3265 10.5404 0.932617 10.5762V10.0122C2.45443 9.90479 3.45703 9.57357 3.94043 9.01855L5.14893 7.38037C5.59652 6.75374 5.85612 5.67057 5.92773 4.13086H6.25C6.21419 4.45312 6.19629 4.99919 6.19629 5.76904C6.19629 6.5389 6.34847 7.11182 6.65283 7.48779C6.92139 7.70264 8.04932 7.94434 10.0366 8.21289C12.0239 8.46354 13.313 8.58887 13.9038 8.58887C14.5125 8.58887 14.9243 8.47249 15.1392 8.23975C15.3719 7.9891 15.7121 7.46094 16.1597 6.65527L16.5356 6.87012C15.9985 7.83691 15.73 8.55306 15.73 9.01855C15.73 9.89583 16.849 10.3345 19.0869 10.3345C19.6598 10.3345 20.6803 10.0301 22.1484 9.42139L22.2559 9.74365C20.931 10.2987 20.0537 10.791 19.624 11.2207L20.1611 11.1133L19.8389 12.3218L18.7378 12.2681C18.6662 12.3397 18.6304 12.4113 18.6304 12.4829C18.6304 13.1632 19.1048 14.1748 20.0537 15.5176L19.7314 15.7324C19.1048 14.891 18.6304 14.3359 18.3081 14.0674C18.0037 13.7988 17.6725 13.6198 17.3145 13.5303L16.4282 13.2617H16.1597C15.7658 13.2617 15.4435 13.5392 15.1929 14.0942C14.9601 14.6493 14.8438 15.07 14.8438 15.3564V24.1919C14.8438 24.8185 15.1392 25.1318 15.73 25.1318H20.1611C20.5371 25.1318 21.0384 24.9707 21.665 24.6484C22.2917 24.3083 22.793 24.1382 23.1689 24.1382C23.5628 24.1382 24.1357 24.2904 24.8877 24.5947C25.6576 24.8812 26.1947 25.0244 26.499 25.0244C26.8213 25.0244 27.0719 24.9349 27.251 24.7559C27.4479 24.5589 27.5464 24.3172 27.5464 24.0308V14.4702C27.5464 13.7899 26.2484 13.1991 23.6523 12.6978L22.8735 10.7373C23.3211 10.7373 23.7061 10.791 24.0283 10.8984C24.2611 10.8984 24.458 10.8 24.6191 10.603C24.7803 10.4061 24.8608 10.1196 24.8608 9.74365C24.8608 9.34977 24.7624 8.79476 24.5654 8.07861L25.1831 7.91748C25.4517 8.86637 25.6934 9.46615 25.9082 9.7168C26.141 9.94954 26.4632 10.0659 26.875 10.0659H27.1167C27.2957 10.0659 27.6628 9.83317 28.2178 9.36768C28.7728 8.88428 29.3188 8.64258 29.856 8.64258ZM48.5474 35.7666C49.7827 35.1937 50.4272 34.7103 50.481 34.3164C50.4451 34.1911 50.3109 34.012 50.0781 33.7793C49.0934 33.0273 48.5653 31.7383 48.4937 29.9121C48.4937 29.7331 48.4399 29.5898 48.3325 29.4824C47.4194 28.7842 46.8197 28.0501 46.5332 27.2803C46.2646 26.5104 46.0856 25.8032 45.9961 25.1587C45.8708 24.2635 45.8081 23.1982 45.8081 21.9629C45.8081 17.9167 44.8682 15.2938 42.9883 14.0942L45.2979 10.5762C45.8887 11.0417 46.7928 11.2744 48.0103 11.2744C49.2456 11.2744 50.3019 11.1133 51.1792 10.791C51.215 9.55566 51.779 8.67839 52.8711 8.15918C53.3903 7.92643 53.9185 7.73844 54.4556 7.59521C56.1922 7.12972 57.526 6.68213 58.457 6.25244C59.4059 5.82275 60.1937 5.60791 60.8203 5.60791C62.5749 5.60791 64.3921 6.21663 66.272 7.43408C68.1519 8.63363 69.4857 10.0838 70.2734 11.7847C70.7389 12.6619 71.7236 13.6019 73.2275 14.6045C74.5166 15.446 75.1611 16.556 75.1611 17.9346C75.1611 18.4538 75.3044 18.9819 75.5908 19.519C75.8773 20.0382 76.2533 20.2979 76.7188 20.2979C77.2021 20.2979 77.7303 20.1904 78.3032 19.9756L78.5181 20.6201C77.7124 20.8887 77.1842 21.1304 76.9336 21.3452C76.7008 21.5422 76.5845 21.8018 76.5845 22.124L77.0947 27.7905C77.0947 28.9543 76.6919 30.5208 75.8862 32.4902C74.9373 34.8714 74.4629 36.3037 74.4629 36.7871C74.4629 37.2526 74.5793 37.6017 74.812 37.8345C75.0448 38.0493 75.5103 38.3268 76.2085 38.667L75.9399 39.231C75.1164 38.855 74.5345 38.667 74.1943 38.667C73.8721 38.667 73.6304 38.7565 73.4692 38.9355C73.326 39.1146 73.0127 39.4637 72.5293 39.9829C72.0638 40.5021 71.7684 40.8333 71.6431 40.9766C71.5177 41.1019 71.2492 41.3794 70.8374 41.8091C70.4256 42.2388 70.1123 42.561 69.8975 42.7759C69.7005 42.9728 69.432 43.2503 69.0918 43.6084C68.6442 44.056 68.1519 44.5125 67.6147 44.978C67.0776 45.4435 66.8091 45.8464 66.8091 46.1865C66.8091 46.5088 66.9523 47.0638 67.2388 47.8516L66.7017 48.0664C66.3794 47.207 66.1108 46.6699 65.896 46.4551C65.6991 46.2223 65.4126 46.106 65.0366 46.106H64.8755C64.3742 46.106 63.9714 46.2313 63.667 46.4819C63.3805 46.7147 63.0851 47.2607 62.7808 48.1201L61.9751 47.7979C62.2257 47.0638 62.3511 46.473 62.3511 46.0254C62.3511 45.5778 62.1452 45.2376 61.7334 45.0049C61.3216 44.7721 60.8561 44.6379 60.3369 44.6021C58.8867 44.4946 57.911 43.9486 57.4097 42.9639C57.3739 42.8743 57.2843 42.6953 57.1411 42.4268C56.8368 41.9434 56.6309 41.46 56.5234 40.9766C55.8968 40.887 54.8584 40.5648 53.4082 40.0098C51.958 39.4548 50.9196 39.0609 50.293 38.8281L51.3403 39.1772C51.5552 39.2489 51.77 39.2847 51.9849 39.2847C52.2176 39.2847 52.4414 39.1772 52.6562 38.9624C52.889 38.7476 53.0054 38.4701 53.0054 38.1299C53.0054 37.7718 52.6831 37.2705 52.0386 36.626C51.4119 35.9635 50.9375 35.6323 50.6152 35.6323C50.3109 35.6323 49.6932 35.8203 48.7622 36.1963L48.5474 35.7666ZM53.8379 19.1431C53.4977 19.1431 53.3276 19.3669 53.3276 19.8145V22.2314C53.3276 22.8581 53.6499 23.9591 54.2944 25.5347C56.228 30.3507 57.2306 33.5197 57.3022 35.0415C57.3022 35.1489 57.3381 35.2743 57.4097 35.4175L58.0005 36.1963C58.2869 36.5902 58.6003 36.7871 58.9404 36.7871C59.2806 36.7871 59.7909 36.5902 60.4712 36.1963L60.9814 36.9214C60.0326 37.4764 59.5581 37.9688 59.5581 38.3984C59.5581 38.6312 59.5939 38.8192 59.6655 38.9624C59.755 39.0877 59.8177 39.2041 59.8535 39.3115C59.8893 39.4189 59.9072 39.4995 59.9072 39.5532C59.9251 39.589 59.952 39.6427 59.9878 39.7144C60.0415 39.786 60.0952 39.8307 60.1489 39.8486C60.3101 39.9382 60.4712 39.9829 60.6323 39.9829H60.9814C61.3753 39.9829 61.7065 40.0993 61.9751 40.332C62.2437 40.5469 62.4048 40.6543 62.4585 40.6543H63.9355C64.0967 40.6543 64.1951 40.6364 64.231 40.6006L65.0903 40.144C65.1261 40.1261 65.2694 39.8665 65.52 39.3652C66.3794 37.6286 66.9344 36.617 67.1851 36.3306C67.4357 36.0441 67.5789 35.6323 67.6147 35.0952C67.6685 34.5581 67.7848 34.2269 67.9639 34.1016C68.0892 33.8509 68.1966 33.3854 68.2861 32.7051C68.3936 32.0247 68.5278 31.5682 68.689 31.3354C68.868 31.1027 68.9575 30.9237 68.9575 30.7983V24.7021C68.9575 22.4642 68.3667 21.3452 67.1851 21.3452C66.7912 21.3452 66.46 21.3631 66.1914 21.3989L66.084 20.7275C66.9255 20.6022 67.4626 20.459 67.6953 20.2979C67.946 20.1188 68.0892 19.8592 68.125 19.519C68.0892 19.4295 67.9639 19.2684 67.749 19.0356C67.5521 18.8029 67.4536 18.5254 67.4536 18.2031L67.5073 17.4512C67.5073 17.29 67.373 17.0662 67.1045 16.7798C66.8359 16.4754 66.4062 15.7324 65.8154 14.5508C65.2425 13.3512 64.7323 12.5008 64.2847 11.9995C63.8908 12.2144 63.6491 12.8141 63.5596 13.7988L62.4048 13.6914C62.4406 13.5124 62.4585 13.2259 62.4585 12.832C62.4585 11.6862 61.7424 11.1133 60.3101 11.1133C60.1489 11.1133 59.6924 11.2655 58.9404 11.5698C58.2064 11.8563 57.8125 12.0264 57.7588 12.0801C57.723 12.1338 57.6245 12.3039 57.4634 12.5903L57.0874 13.2349C56.8547 13.6646 56.7383 14.0584 56.7383 14.4165C56.7383 14.7746 57.2664 15.249 58.3228 15.8398L58.0542 16.2964C57.159 15.813 56.5771 15.5713 56.3086 15.5713C56.0579 15.5713 55.8162 15.7414 55.5835 16.0815C55.3687 16.4038 55.1896 16.7708 55.0464 17.1826C54.6883 18.2926 54.2855 18.9461 53.8379 19.1431ZM49.4873 38.5059L50.1318 38.7744L49.4873 38.5059ZM50.1318 38.7744C50.2035 38.7744 50.2572 38.7923 50.293 38.8281L50.1318 38.7744ZM88.7769 4.02344L89.6899 3.99658C90.0838 3.99658 90.3434 3.96973 90.4688 3.91602C90.5941 3.8444 90.7373 3.77279 90.8984 3.70117C91.0775 3.62956 91.1938 3.54899 91.2476 3.45947C91.3192 3.35205 91.4087 3.22673 91.5161 3.0835C91.6414 2.92236 91.731 2.75228 91.7847 2.57324C91.8921 2.07194 91.9458 1.56169 91.9458 1.04248L92.6172 0.98877C92.6172 2.1167 92.8141 2.8418 93.208 3.16406C93.3691 3.30729 93.4766 3.41471 93.5303 3.48633C93.6019 3.55794 93.7541 3.61165 93.9868 3.64746C94.2375 3.68327 94.3896 3.71012 94.4434 3.72803C94.4971 3.72803 94.6672 3.72803 94.9536 3.72803C95.2401 3.71012 95.4818 3.70117 95.6787 3.70117C95.8757 3.70117 96.0994 3.67432 96.3501 3.62061C96.6187 3.56689 96.8962 3.46842 97.1826 3.3252C97.7734 3.00293 98.0688 2.27783 98.0688 1.1499H98.8208C98.8566 2.47477 99.1968 3.21777 99.8413 3.37891C100.128 3.43262 100.405 3.46842 100.674 3.48633C101.318 3.55794 101.659 4.03239 101.694 4.90967C101.694 5.0887 101.766 5.24984 101.909 5.39307C102.93 6.46729 103.44 7.69368 103.44 9.07227C103.44 13.6735 102.384 17.7824 100.271 21.3989C100.432 21.8465 100.942 22.2135 101.802 22.5L101.372 23.8159C100.907 23.6369 100.432 23.5474 99.9487 23.5474C99.4832 23.5474 99.0535 23.8696 98.6597 24.5142C98.2658 25.1587 98.0868 25.8838 98.1226 26.6895L98.1763 28.0054C98.1763 28.1128 98.2121 28.2381 98.2837 28.3813C98.9998 29.0438 99.895 30.3687 100.969 32.356C102.903 35.9725 104.371 37.7808 105.374 37.7808C105.678 37.7808 106.188 37.6912 106.904 37.5122L107.092 38.0762C106.197 38.3089 105.633 38.5059 105.4 38.667C105.168 38.8281 105.051 39.0698 105.051 39.3921L104.998 40.332V40.4932C104.998 41.0482 105.168 41.6211 105.508 42.2119C105.848 42.7848 106.197 43.0713 106.555 43.0713C106.931 43.0713 107.513 42.8117 108.301 42.2925L108.569 42.8027C107.585 43.4115 107.092 43.9307 107.092 44.3604C107.092 44.79 107.37 45.2913 107.925 45.8643C108.48 46.4193 108.936 46.6968 109.294 46.6968C109.653 46.6968 110.27 46.5894 111.147 46.3745L111.255 46.7505C110.288 47.0011 109.688 47.1891 109.456 47.3145C109.008 47.583 108.784 47.9321 108.784 48.3618C108.784 48.7736 109.133 49.4629 109.832 50.4297L109.563 50.6714C109.026 49.9015 108.632 49.4181 108.381 49.2212C108.131 49.0063 107.916 48.8989 107.737 48.8989C107.558 48.8989 107.397 48.9347 107.253 49.0063L106.582 49.4629C106.081 49.7852 105.499 50.5908 104.836 51.8799L104.595 51.7725C105.15 50.734 105.481 50 105.588 49.5703C105.427 49.1585 105.096 48.9526 104.595 48.9526L102.742 49.0601C102.312 49.0601 102.052 49.3376 101.963 49.8926L101.641 51.1011H101.13L101.748 48.4692C101.748 47.4308 101.363 46.9116 100.593 46.9116C100.199 46.9116 99.5369 47.2249 98.606 47.8516L98.2837 47.4219C99.3758 46.6341 99.9219 46.0075 99.9219 45.542C99.9219 44.6468 99.8055 43.4204 99.5728 41.8628C99.3579 40.3052 99.1431 39.4279 98.9282 39.231C98.4985 38.8908 97.9256 38.0404 97.2095 36.6797C95.0789 32.5618 93.2886 29.8853 91.8384 28.6499C91.6772 28.4351 91.4803 28.3276 91.2476 28.3276C90.7821 28.3276 90.4329 28.6947 90.2002 29.4287C89.9674 30.1449 89.8511 30.9684 89.8511 31.8994C89.8511 32.8304 89.9495 34.2806 90.1465 36.25C90.3613 38.2015 90.4867 39.598 90.5225 40.4395C90.5225 40.6901 91.2207 41.2093 92.6172 41.9971C94.0316 42.7848 94.9268 43.1787 95.3027 43.1787C95.6966 43.1787 96.2874 43.1071 97.0752 42.9639L97.1826 43.3936C95.7324 43.68 94.8372 44.0828 94.4971 44.6021L93.8257 45.6494C93.7183 45.8105 93.6646 46.0164 93.6646 46.2671C93.6646 46.5177 93.9779 47.0996 94.6045 48.0127L94.2554 48.2275C93.5392 47.1354 92.9753 46.5894 92.5635 46.5894L91.355 46.6968C90.979 46.6968 90.4956 46.5177 89.9048 46.1597C89.3319 45.7837 89.0096 45.5957 88.938 45.5957C88.8843 45.5957 88.8216 45.6315 88.75 45.7031C88.6784 45.7568 88.5799 45.8285 88.4546 45.918C88.3472 46.0075 88.2218 46.097 88.0786 46.1865C87.6847 46.473 87.3177 46.6878 86.9775 46.8311C86.6553 46.9564 86.4225 47.1175 86.2793 47.3145C86.1361 47.4935 86.0645 47.8068 86.0645 48.2544C86.0645 48.6841 86.0824 49.0422 86.1182 49.3286H85.5811C85.4557 47.95 85.1514 47.2607 84.668 47.2607C84.2025 47.2607 83.4953 47.6457 82.5464 48.4155L82.3315 48.0664C83.0835 47.4935 83.5579 47.0728 83.7549 46.8042C83.9697 46.5177 84.0771 46.2223 84.0771 45.918L84.2114 44.2798C84.2114 43.9754 84.0951 43.7069 83.8623 43.4741C83.6296 43.2414 83.1372 42.9012 82.3853 42.4536L82.7075 41.9165C83.6922 42.3641 84.3188 42.5879 84.5874 42.5879C84.8739 42.5879 85.214 42.3999 85.6079 42.0239C86.0197 41.63 86.2256 41.3167 86.2256 41.084L86.1719 40.8154C85.2588 37.3779 84.668 33.8509 84.3994 30.2344C84.1488 26.5999 84.0234 22.2583 84.0234 17.2095C84.0055 17.2095 83.7638 16.377 83.2983 14.7119C82.8507 13.029 82.6001 12.1606 82.5464 12.1069L79.6997 10.1196C79.3058 9.90479 78.9299 9.79736 78.5718 9.79736C78.2316 9.79736 77.6497 9.92269 76.8262 10.1733L76.665 9.68994C77.5602 9.42139 78.151 9.18864 78.4375 8.9917C78.7419 8.79476 78.9567 8.53516 79.082 8.21289L79.9146 6.2793C79.9862 6.06445 80.022 5.82275 80.022 5.5542C80.022 5.26774 79.6908 4.63216 79.0283 3.64746L79.458 3.29834C79.9772 4.0861 80.3711 4.5874 80.6396 4.80225C80.9261 5.01709 81.2484 5.12451 81.6064 5.12451H86.0107C86.2614 5.12451 86.4673 5.02604 86.6284 4.8291C86.8075 4.63216 86.897 4.35465 86.897 3.99658C86.897 3.62061 86.7269 3.05664 86.3867 2.30469L87.0044 2.08984C87.4341 3.19987 87.819 3.81755 88.1592 3.94287C88.3024 3.99658 88.5083 4.02344 88.7769 4.02344ZM89.8511 10.5225V21.2378C89.8511 21.5422 89.9406 21.7928 90.1196 21.9897C90.2987 22.1867 90.4956 22.2852 90.7104 22.2852C90.9253 22.2852 91.1401 22.2314 91.355 22.124L92.2949 21.6138C92.4202 21.4168 92.7425 21.1662 93.2617 20.8618C94.5508 20.1099 95.1953 19.2057 95.1953 18.1494C95.1953 17.8271 95.3027 17.3706 95.5176 16.7798C95.7503 16.189 95.8667 15.7503 95.8667 15.4639V12.832C95.8667 12.5456 95.7503 12.1606 95.5176 11.6772C95.3027 11.1759 95.1953 10.791 95.1953 10.5225C95.1953 10.236 95.0789 9.94954 94.8462 9.66309C94.3091 9.01855 93.9152 8.69629 93.6646 8.69629H91.0059C90.6657 8.69629 90.3882 8.94694 90.1733 9.44824C89.9585 9.94954 89.8511 10.3076 89.8511 10.5225ZM119.392 4.02344L120.305 3.99658C120.699 3.99658 120.959 3.96973 121.084 3.91602C121.209 3.8444 121.353 3.77279 121.514 3.70117C121.693 3.62956 121.809 3.54899 121.863 3.45947C121.934 3.35205 122.024 3.22673 122.131 3.0835C122.257 2.92236 122.346 2.75228 122.4 2.57324C122.507 2.07194 122.561 1.56169 122.561 1.04248L123.232 0.98877C123.232 2.1167 123.429 2.8418 123.823 3.16406C123.984 3.30729 124.092 3.41471 124.146 3.48633C124.217 3.55794 124.369 3.61165 124.602 3.64746C124.853 3.68327 125.005 3.71012 125.059 3.72803C125.112 3.72803 125.282 3.72803 125.569 3.72803C125.855 3.71012 126.097 3.70117 126.294 3.70117C126.491 3.70117 126.715 3.67432 126.965 3.62061C127.234 3.56689 127.511 3.46842 127.798 3.3252C128.389 3.00293 128.684 2.27783 128.684 1.1499H129.436C129.472 2.47477 129.812 3.21777 130.457 3.37891C130.743 3.43262 131.021 3.46842 131.289 3.48633C131.934 3.55794 132.274 4.03239 132.31 4.90967C132.31 5.0887 132.381 5.24984 132.524 5.39307C133.545 6.46729 134.055 7.69368 134.055 9.07227C134.055 13.6735 132.999 17.7824 130.886 21.3989C131.047 21.8465 131.558 22.2135 132.417 22.5L131.987 23.8159C131.522 23.6369 131.047 23.5474 130.564 23.5474C130.098 23.5474 129.669 23.8696 129.275 24.5142C128.881 25.1587 128.702 25.8838 128.738 26.6895L128.792 28.0054C128.792 28.1128 128.827 28.2381 128.899 28.3813C129.615 29.0438 130.51 30.3687 131.584 32.356C133.518 35.9725 134.986 37.7808 135.989 37.7808C136.293 37.7808 136.803 37.6912 137.52 37.5122L137.708 38.0762C136.812 38.3089 136.248 38.5059 136.016 38.667C135.783 38.8281 135.667 39.0698 135.667 39.3921L135.613 40.332V40.4932C135.613 41.0482 135.783 41.6211 136.123 42.2119C136.463 42.7848 136.812 43.0713 137.17 43.0713C137.546 43.0713 138.128 42.8117 138.916 42.2925L139.185 42.8027C138.2 43.4115 137.708 43.9307 137.708 44.3604C137.708 44.79 137.985 45.2913 138.54 45.8643C139.095 46.4193 139.552 46.6968 139.91 46.6968C140.268 46.6968 140.885 46.5894 141.763 46.3745L141.87 46.7505C140.903 47.0011 140.304 47.1891 140.071 47.3145C139.623 47.583 139.399 47.9321 139.399 48.3618C139.399 48.7736 139.749 49.4629 140.447 50.4297L140.178 50.6714C139.641 49.9015 139.247 49.4181 138.997 49.2212C138.746 49.0063 138.531 48.8989 138.352 48.8989C138.173 48.8989 138.012 48.9347 137.869 49.0063L137.197 49.4629C136.696 49.7852 136.114 50.5908 135.452 51.8799L135.21 51.7725C135.765 50.734 136.096 50 136.204 49.5703C136.042 49.1585 135.711 48.9526 135.21 48.9526L133.357 49.0601C132.927 49.0601 132.668 49.3376 132.578 49.8926L132.256 51.1011H131.746L132.363 48.4692C132.363 47.4308 131.978 46.9116 131.208 46.9116C130.815 46.9116 130.152 47.2249 129.221 47.8516L128.899 47.4219C129.991 46.6341 130.537 46.0075 130.537 45.542C130.537 44.6468 130.421 43.4204 130.188 41.8628C129.973 40.3052 129.758 39.4279 129.543 39.231C129.114 38.8908 128.541 38.0404 127.825 36.6797C125.694 32.5618 123.904 29.8853 122.454 28.6499C122.292 28.4351 122.096 28.3276 121.863 28.3276C121.397 28.3276 121.048 28.6947 120.815 29.4287C120.583 30.1449 120.466 30.9684 120.466 31.8994C120.466 32.8304 120.565 34.2806 120.762 36.25C120.977 38.2015 121.102 39.598 121.138 40.4395C121.138 40.6901 121.836 41.2093 123.232 41.9971C124.647 42.7848 125.542 43.1787 125.918 43.1787C126.312 43.1787 126.903 43.1071 127.69 42.9639L127.798 43.3936C126.348 43.68 125.452 44.0828 125.112 44.6021L124.441 45.6494C124.333 45.8105 124.28 46.0164 124.28 46.2671C124.28 46.5177 124.593 47.0996 125.22 48.0127L124.871 48.2275C124.154 47.1354 123.59 46.5894 123.179 46.5894L121.97 46.6968C121.594 46.6968 121.111 46.5177 120.52 46.1597C119.947 45.7837 119.625 45.5957 119.553 45.5957C119.5 45.5957 119.437 45.6315 119.365 45.7031C119.294 45.7568 119.195 45.8285 119.07 45.918C118.962 46.0075 118.837 46.097 118.694 46.1865C118.3 46.473 117.933 46.6878 117.593 46.8311C117.271 46.9564 117.038 47.1175 116.895 47.3145C116.751 47.4935 116.68 47.8068 116.68 48.2544C116.68 48.6841 116.698 49.0422 116.733 49.3286H116.196C116.071 47.95 115.767 47.2607 115.283 47.2607C114.818 47.2607 114.111 47.6457 113.162 48.4155L112.947 48.0664C113.699 47.4935 114.173 47.0728 114.37 46.8042C114.585 46.5177 114.692 46.2223 114.692 45.918L114.827 44.2798C114.827 43.9754 114.71 43.7069 114.478 43.4741C114.245 43.2414 113.752 42.9012 113 42.4536L113.323 41.9165C114.307 42.3641 114.934 42.5879 115.203 42.5879C115.489 42.5879 115.829 42.3999 116.223 42.0239C116.635 41.63 116.841 41.3167 116.841 41.084L116.787 40.8154C115.874 37.3779 115.283 33.8509 115.015 30.2344C114.764 26.5999 114.639 22.2583 114.639 17.2095C114.621 17.2095 114.379 16.377 113.914 14.7119C113.466 13.029 113.215 12.1606 113.162 12.1069L110.315 10.1196C109.921 9.90479 109.545 9.79736 109.187 9.79736C108.847 9.79736 108.265 9.92269 107.441 10.1733L107.28 9.68994C108.175 9.42139 108.766 9.18864 109.053 8.9917C109.357 8.79476 109.572 8.53516 109.697 8.21289L110.53 6.2793C110.601 6.06445 110.637 5.82275 110.637 5.5542C110.637 5.26774 110.306 4.63216 109.644 3.64746L110.073 3.29834C110.592 4.0861 110.986 4.5874 111.255 4.80225C111.541 5.01709 111.864 5.12451 112.222 5.12451H116.626C116.877 5.12451 117.083 5.02604 117.244 4.8291C117.423 4.63216 117.512 4.35465 117.512 3.99658C117.512 3.62061 117.342 3.05664 117.002 2.30469L117.62 2.08984C118.049 3.19987 118.434 3.81755 118.774 3.94287C118.918 3.99658 119.124 4.02344 119.392 4.02344ZM120.466 10.5225V21.2378C120.466 21.5422 120.556 21.7928 120.735 21.9897C120.914 22.1867 121.111 22.2852 121.326 22.2852C121.541 22.2852 121.755 22.2314 121.97 22.124L122.91 21.6138C123.035 21.4168 123.358 21.1662 123.877 20.8618C125.166 20.1099 125.811 19.2057 125.811 18.1494C125.811 17.8271 125.918 17.3706 126.133 16.7798C126.366 16.189 126.482 15.7503 126.482 15.4639V12.832C126.482 12.5456 126.366 12.1606 126.133 11.6772C125.918 11.1759 125.811 10.791 125.811 10.5225C125.811 10.236 125.694 9.94954 125.461 9.66309C124.924 9.01855 124.53 8.69629 124.28 8.69629H121.621C121.281 8.69629 121.003 8.94694 120.789 9.44824C120.574 9.94954 120.466 10.3076 120.466 10.5225ZM144.314 35.7666C145.549 35.1937 146.194 34.7103 146.248 34.3164C146.212 34.1911 146.077 34.012 145.845 33.7793C144.86 33.0273 144.332 31.7383 144.26 29.9121C144.26 29.7331 144.207 29.5898 144.099 29.4824C143.186 28.7842 142.586 28.0501 142.3 27.2803C142.031 26.5104 141.852 25.8032 141.763 25.1587C141.637 24.2635 141.575 23.1982 141.575 21.9629C141.575 17.9167 140.635 15.2938 138.755 14.0942L141.064 10.5762C141.655 11.0417 142.559 11.2744 143.777 11.2744C145.012 11.2744 146.069 11.1133 146.946 10.791C146.982 9.55566 147.546 8.67839 148.638 8.15918C149.157 7.92643 149.685 7.73844 150.222 7.59521C151.959 7.12972 153.293 6.68213 154.224 6.25244C155.173 5.82275 155.96 5.60791 156.587 5.60791C158.341 5.60791 160.159 6.21663 162.039 7.43408C163.918 8.63363 165.252 10.0838 166.04 11.7847C166.506 12.6619 167.49 13.6019 168.994 14.6045C170.283 15.446 170.928 16.556 170.928 17.9346C170.928 18.4538 171.071 18.9819 171.357 19.519C171.644 20.0382 172.02 20.2979 172.485 20.2979C172.969 20.2979 173.497 20.1904 174.07 19.9756L174.285 20.6201C173.479 20.8887 172.951 21.1304 172.7 21.3452C172.467 21.5422 172.351 21.8018 172.351 22.124L172.861 27.7905C172.861 28.9543 172.458 30.5208 171.653 32.4902C170.704 34.8714 170.229 36.3037 170.229 36.7871C170.229 37.2526 170.346 37.6017 170.579 37.8345C170.811 38.0493 171.277 38.3268 171.975 38.667L171.707 39.231C170.883 38.855 170.301 38.667 169.961 38.667C169.639 38.667 169.397 38.7565 169.236 38.9355C169.093 39.1146 168.779 39.4637 168.296 39.9829C167.83 40.5021 167.535 40.8333 167.41 40.9766C167.284 41.1019 167.016 41.3794 166.604 41.8091C166.192 42.2388 165.879 42.561 165.664 42.7759C165.467 42.9728 165.199 43.2503 164.858 43.6084C164.411 44.056 163.918 44.5125 163.381 44.978C162.844 45.4435 162.576 45.8464 162.576 46.1865C162.576 46.5088 162.719 47.0638 163.005 47.8516L162.468 48.0664C162.146 47.207 161.877 46.6699 161.663 46.4551C161.466 46.2223 161.179 46.106 160.803 46.106H160.642C160.141 46.106 159.738 46.2313 159.434 46.4819C159.147 46.7147 158.852 47.2607 158.547 48.1201L157.742 47.7979C157.992 47.0638 158.118 46.473 158.118 46.0254C158.118 45.5778 157.912 45.2376 157.5 45.0049C157.088 44.7721 156.623 44.6379 156.104 44.6021C154.653 44.4946 153.678 43.9486 153.176 42.9639C153.14 42.8743 153.051 42.6953 152.908 42.4268C152.603 41.9434 152.397 41.46 152.29 40.9766C151.663 40.887 150.625 40.5648 149.175 40.0098C147.725 39.4548 146.686 39.0609 146.06 38.8281L147.107 39.1772C147.322 39.2489 147.537 39.2847 147.751 39.2847C147.984 39.2847 148.208 39.1772 148.423 38.9624C148.656 38.7476 148.772 38.4701 148.772 38.1299C148.772 37.7718 148.45 37.2705 147.805 36.626C147.179 35.9635 146.704 35.6323 146.382 35.6323C146.077 35.6323 145.46 35.8203 144.529 36.1963L144.314 35.7666ZM149.604 19.1431C149.264 19.1431 149.094 19.3669 149.094 19.8145V22.2314C149.094 22.8581 149.417 23.9591 150.061 25.5347C151.995 30.3507 152.997 33.5197 153.069 35.0415C153.069 35.1489 153.105 35.2743 153.176 35.4175L153.767 36.1963C154.054 36.5902 154.367 36.7871 154.707 36.7871C155.047 36.7871 155.557 36.5902 156.238 36.1963L156.748 36.9214C155.799 37.4764 155.325 37.9688 155.325 38.3984C155.325 38.6312 155.361 38.8192 155.432 38.9624C155.522 39.0877 155.584 39.2041 155.62 39.3115C155.656 39.4189 155.674 39.4995 155.674 39.5532C155.692 39.589 155.719 39.6427 155.754 39.7144C155.808 39.786 155.862 39.8307 155.916 39.8486C156.077 39.9382 156.238 39.9829 156.399 39.9829H156.748C157.142 39.9829 157.473 40.0993 157.742 40.332C158.01 40.5469 158.171 40.6543 158.225 40.6543H159.702C159.863 40.6543 159.962 40.6364 159.998 40.6006L160.857 40.144C160.893 40.1261 161.036 39.8665 161.287 39.3652C162.146 37.6286 162.701 36.617 162.952 36.3306C163.202 36.0441 163.346 35.6323 163.381 35.0952C163.435 34.5581 163.551 34.2269 163.73 34.1016C163.856 33.8509 163.963 33.3854 164.053 32.7051C164.16 32.0247 164.294 31.5682 164.456 31.3354C164.635 31.1027 164.724 30.9237 164.724 30.7983V24.7021C164.724 22.4642 164.133 21.3452 162.952 21.3452C162.558 21.3452 162.227 21.3631 161.958 21.3989L161.851 20.7275C162.692 20.6022 163.229 20.459 163.462 20.2979C163.713 20.1188 163.856 19.8592 163.892 19.519C163.856 19.4295 163.73 19.2684 163.516 19.0356C163.319 18.8029 163.22 18.5254 163.22 18.2031L163.274 17.4512C163.274 17.29 163.14 17.0662 162.871 16.7798C162.603 16.4754 162.173 15.7324 161.582 14.5508C161.009 13.3512 160.499 12.5008 160.051 11.9995C159.657 12.2144 159.416 12.8141 159.326 13.7988L158.171 13.6914C158.207 13.5124 158.225 13.2259 158.225 12.832C158.225 11.6862 157.509 11.1133 156.077 11.1133C155.916 11.1133 155.459 11.2655 154.707 11.5698C153.973 11.8563 153.579 12.0264 153.525 12.0801C153.49 12.1338 153.391 12.3039 153.23 12.5903L152.854 13.2349C152.621 13.6646 152.505 14.0584 152.505 14.4165C152.505 14.7746 153.033 15.249 154.089 15.8398L153.821 16.2964C152.926 15.813 152.344 15.5713 152.075 15.5713C151.825 15.5713 151.583 15.7414 151.35 16.0815C151.135 16.4038 150.956 16.7708 150.813 17.1826C150.455 18.2926 150.052 18.9461 149.604 19.1431ZM145.254 38.5059L145.898 38.7744L145.254 38.5059ZM145.898 38.7744C145.97 38.7744 146.024 38.7923 146.06 38.8281L145.898 38.7744ZM184.543 4.02344L185.457 3.99658C185.85 3.99658 186.11 3.96973 186.235 3.91602C186.361 3.8444 186.504 3.77279 186.665 3.70117C186.844 3.62956 186.96 3.54899 187.014 3.45947C187.086 3.35205 187.175 3.22673 187.283 3.0835C187.408 2.92236 187.498 2.75228 187.551 2.57324C187.659 2.07194 187.712 1.56169 187.712 1.04248L188.384 0.98877C188.384 2.1167 188.581 2.8418 188.975 3.16406C189.136 3.30729 189.243 3.41471 189.297 3.48633C189.368 3.55794 189.521 3.61165 189.753 3.64746C190.004 3.68327 190.156 3.71012 190.21 3.72803C190.264 3.72803 190.434 3.72803 190.72 3.72803C191.007 3.71012 191.248 3.70117 191.445 3.70117C191.642 3.70117 191.866 3.67432 192.117 3.62061C192.385 3.56689 192.663 3.46842 192.949 3.3252C193.54 3.00293 193.835 2.27783 193.835 1.1499H194.587C194.623 2.47477 194.963 3.21777 195.608 3.37891C195.894 3.43262 196.172 3.46842 196.44 3.48633C197.085 3.55794 197.425 4.03239 197.461 4.90967C197.461 5.0887 197.533 5.24984 197.676 5.39307C198.696 6.46729 199.207 7.69368 199.207 9.07227C199.207 13.6735 198.15 17.7824 196.038 21.3989C196.199 21.8465 196.709 22.2135 197.568 22.5L197.139 23.8159C196.673 23.6369 196.199 23.5474 195.715 23.5474C195.25 23.5474 194.82 23.8696 194.426 24.5142C194.032 25.1587 193.853 25.8838 193.889 26.6895L193.943 28.0054C193.943 28.1128 193.979 28.2381 194.05 28.3813C194.766 29.0438 195.662 30.3687 196.736 32.356C198.669 35.9725 200.138 37.7808 201.14 37.7808C201.444 37.7808 201.955 37.6912 202.671 37.5122L202.859 38.0762C201.964 38.3089 201.4 38.5059 201.167 38.667C200.934 38.8281 200.818 39.0698 200.818 39.3921L200.764 40.332V40.4932C200.764 41.0482 200.934 41.6211 201.274 42.2119C201.615 42.7848 201.964 43.0713 202.322 43.0713C202.698 43.0713 203.28 42.8117 204.067 42.2925L204.336 42.8027C203.351 43.4115 202.859 43.9307 202.859 44.3604C202.859 44.79 203.136 45.2913 203.691 45.8643C204.246 46.4193 204.703 46.6968 205.061 46.6968C205.419 46.6968 206.037 46.5894 206.914 46.3745L207.021 46.7505C206.055 47.0011 205.455 47.1891 205.222 47.3145C204.775 47.583 204.551 47.9321 204.551 48.3618C204.551 48.7736 204.9 49.4629 205.598 50.4297L205.33 50.6714C204.792 49.9015 204.399 49.4181 204.148 49.2212C203.897 49.0063 203.682 48.8989 203.503 48.8989C203.324 48.8989 203.163 48.9347 203.02 49.0063L202.349 49.4629C201.847 49.7852 201.265 50.5908 200.603 51.8799L200.361 51.7725C200.916 50.734 201.248 50 201.355 49.5703C201.194 49.1585 200.863 48.9526 200.361 48.9526L198.508 49.0601C198.079 49.0601 197.819 49.3376 197.729 49.8926L197.407 51.1011H196.897L197.515 48.4692C197.515 47.4308 197.13 46.9116 196.36 46.9116C195.966 46.9116 195.304 47.2249 194.373 47.8516L194.05 47.4219C195.142 46.6341 195.688 46.0075 195.688 45.542C195.688 44.6468 195.572 43.4204 195.339 41.8628C195.125 40.3052 194.91 39.4279 194.695 39.231C194.265 38.8908 193.692 38.0404 192.976 36.6797C190.846 32.5618 189.055 29.8853 187.605 28.6499C187.444 28.4351 187.247 28.3276 187.014 28.3276C186.549 28.3276 186.2 28.6947 185.967 29.4287C185.734 30.1449 185.618 30.9684 185.618 31.8994C185.618 32.8304 185.716 34.2806 185.913 36.25C186.128 38.2015 186.253 39.598 186.289 40.4395C186.289 40.6901 186.987 41.2093 188.384 41.9971C189.798 42.7848 190.693 43.1787 191.069 43.1787C191.463 43.1787 192.054 43.1071 192.842 42.9639L192.949 43.3936C191.499 43.68 190.604 44.0828 190.264 44.6021L189.592 45.6494C189.485 45.8105 189.431 46.0164 189.431 46.2671C189.431 46.5177 189.744 47.0996 190.371 48.0127L190.022 48.2275C189.306 47.1354 188.742 46.5894 188.33 46.5894L187.122 46.6968C186.746 46.6968 186.262 46.5177 185.671 46.1597C185.098 45.7837 184.776 45.5957 184.705 45.5957C184.651 45.5957 184.588 45.6315 184.517 45.7031C184.445 45.7568 184.347 45.8285 184.221 45.918C184.114 46.0075 183.988 46.097 183.845 46.1865C183.451 46.473 183.084 46.6878 182.744 46.8311C182.422 46.9564 182.189 47.1175 182.046 47.3145C181.903 47.4935 181.831 47.8068 181.831 48.2544C181.831 48.6841 181.849 49.0422 181.885 49.3286H181.348C181.222 47.95 180.918 47.2607 180.435 47.2607C179.969 47.2607 179.262 47.6457 178.313 48.4155L178.098 48.0664C178.85 47.4935 179.325 47.0728 179.521 46.8042C179.736 46.5177 179.844 46.2223 179.844 45.918L179.978 44.2798C179.978 43.9754 179.862 43.7069 179.629 43.4741C179.396 43.2414 178.904 42.9012 178.152 42.4536L178.474 41.9165C179.459 42.3641 180.085 42.5879 180.354 42.5879C180.64 42.5879 180.981 42.3999 181.375 42.0239C181.786 41.63 181.992 41.3167 181.992 41.084L181.938 40.8154C181.025 37.3779 180.435 33.8509 180.166 30.2344C179.915 26.5999 179.79 22.2583 179.79 17.2095C179.772 17.2095 179.53 16.377 179.065 14.7119C178.617 13.029 178.367 12.1606 178.313 12.1069L175.466 10.1196C175.072 9.90479 174.696 9.79736 174.338 9.79736C173.998 9.79736 173.416 9.92269 172.593 10.1733L172.432 9.68994C173.327 9.42139 173.918 9.18864 174.204 8.9917C174.508 8.79476 174.723 8.53516 174.849 8.21289L175.681 6.2793C175.753 6.06445 175.789 5.82275 175.789 5.5542C175.789 5.26774 175.457 4.63216 174.795 3.64746L175.225 3.29834C175.744 4.0861 176.138 4.5874 176.406 4.80225C176.693 5.01709 177.015 5.12451 177.373 5.12451H181.777C182.028 5.12451 182.234 5.02604 182.395 4.8291C182.574 4.63216 182.664 4.35465 182.664 3.99658C182.664 3.62061 182.493 3.05664 182.153 2.30469L182.771 2.08984C183.201 3.19987 183.586 3.81755 183.926 3.94287C184.069 3.99658 184.275 4.02344 184.543 4.02344ZM185.618 10.5225V21.2378C185.618 21.5422 185.707 21.7928 185.886 21.9897C186.065 22.1867 186.262 22.2852 186.477 22.2852C186.692 22.2852 186.907 22.2314 187.122 22.124L188.062 21.6138C188.187 21.4168 188.509 21.1662 189.028 20.8618C190.317 20.1099 190.962 19.2057 190.962 18.1494C190.962 17.8271 191.069 17.3706 191.284 16.7798C191.517 16.189 191.633 15.7503 191.633 15.4639V12.832C191.633 12.5456 191.517 12.1606 191.284 11.6772C191.069 11.1759 190.962 10.791 190.962 10.5225C190.962 10.236 190.846 9.94954 190.613 9.66309C190.076 9.01855 189.682 8.69629 189.431 8.69629H186.772C186.432 8.69629 186.155 8.94694 185.94 9.44824C185.725 9.94954 185.618 10.3076 185.618 10.5225Z" fill="white"/>
</svg>
