<svg width="327" height="30" viewBox="0 0 327 30" fill="none" xmlns="http://www.w3.org/2000/svg">
<path d="M0.8461 0.40625H4.47891C4.51797 0.40625 4.85652 1.21354 5.49454 2.82812L14.5766 24.957H14.5961L24.6742 0.40625H28.3266L28.3852 0.464844V28.9414L28.3266 29H25.5531L25.4945 28.9414V5.64062H25.475L15.9047 28.9805L15.8852 29H13.3266C13.2745 29 12.988 28.3359 12.4672 27.0078C12.4281 26.9688 10.2667 21.6888 5.98282 11.168C4.65469 7.99089 3.89297 6.14193 3.69766 5.62109H3.67813V28.9414L3.61954 29H0.8461L0.787506 28.9414V0.464844L0.8461 0.40625ZM60.15 0.40625H63.5094C63.7438 0.705729 66.2893 4.59245 71.1461 12.0664L71.2438 12.1641L78.9781 0.40625H82.2984L82.357 0.464844L72.6891 14.9766V28.9414L72.6305 29H69.8375L69.7984 28.9414V14.9766L60.15 0.464844V0.40625ZM120.958 0.0546875H121.27C122.598 0.0546875 123.914 0.39974 125.216 1.08984C125.619 1.32422 126.062 1.63021 126.544 2.00781C126.765 2.1901 127.052 2.45703 127.403 2.80859C127.898 3.38151 128.249 3.84375 128.458 4.19531C128.64 4.46875 128.783 4.72917 128.888 4.97656V4.99609L126.407 6.12891C126.238 5.73828 125.899 5.25651 125.391 4.68359C124.193 3.42057 122.774 2.78906 121.134 2.78906H121.095C119.493 2.78906 118.158 3.27083 117.091 4.23438C116.7 4.625 116.433 4.9375 116.29 5.17188C115.73 6.07031 115.45 7.04688 115.45 8.10156C115.45 9.22135 115.782 10.0872 116.446 10.6992C116.941 11.168 117.527 11.5521 118.204 11.8516C119.376 12.4115 121.238 12.9909 123.79 13.5898C124.454 13.7721 125.014 13.987 125.47 14.2344C126.029 14.5078 126.596 14.8984 127.169 15.4062C127.624 15.849 127.917 16.168 128.048 16.3633C128.282 16.6758 128.464 16.9622 128.595 17.2227C129.22 18.3945 129.532 19.6055 129.532 20.8555V20.9141L129.552 20.9922L129.532 21.0703V21.1289C129.532 22.4961 129.174 23.8503 128.458 25.1914C127.533 26.8451 126.134 28.043 124.259 28.7852C123.165 29.1888 122.104 29.3906 121.075 29.3906H120.743C119.454 29.3906 118.139 29.0716 116.798 28.4336C116.368 28.2122 115.906 27.9193 115.411 27.5547C114.682 26.9948 114.031 26.3372 113.458 25.582C113.041 24.9961 112.696 24.4297 112.423 23.8828C112.188 23.388 112.071 23.1276 112.071 23.1016C112.123 23.0755 112.963 22.724 114.591 22.0469C114.864 22.6849 115.19 23.2708 115.567 23.8047C115.71 24.026 115.997 24.3581 116.427 24.8008C116.96 25.3086 117.416 25.6536 117.794 25.8359C118.77 26.3828 119.799 26.6562 120.88 26.6562H120.977C122.24 26.6562 123.425 26.2852 124.532 25.543C124.779 25.3867 125.072 25.1328 125.411 24.7812C125.932 24.1823 126.303 23.5117 126.524 22.7695C126.707 22.1706 126.798 21.5911 126.798 21.0312V20.9727C126.798 19.6055 126.335 18.4466 125.411 17.4961C124.929 17.0794 124.545 16.8125 124.259 16.6953C124.076 16.5781 123.803 16.4609 123.438 16.3438C123.178 16.2526 122.507 16.0768 121.427 15.8164C119.265 15.2565 117.618 14.6706 116.485 14.0586C113.972 12.7305 112.716 10.7708 112.716 8.17969V8.02344C112.716 6.38281 113.204 4.84635 114.18 3.41406C114.337 3.17969 114.623 2.84115 115.04 2.39844C115.522 1.94271 115.932 1.61719 116.27 1.42188C116.817 1.05729 117.429 0.757812 118.106 0.523438C119.096 0.210938 120.046 0.0546875 120.958 0.0546875ZM159.109 0.40625H177.137L177.156 0.425781V3.12109L177.137 3.14062H169.5V28.9805L169.48 29H166.785L166.766 28.9805V3.14062H159.109L159.09 3.12109V0.425781L159.109 0.40625ZM208.648 0.40625H222.847L222.866 0.425781V3.12109L222.847 3.14062H211.363V13.3359H220.542L220.562 13.3555V16.0508L220.542 16.0703H211.363V26.2656H222.847L222.866 26.2852V28.9805L222.847 29H208.648L208.628 28.9805V0.425781L208.648 0.40625ZM256.213 0.40625H265.178C267.926 0.40625 270.308 1.5 272.327 3.6875C273.785 5.52344 274.514 7.48958 274.514 9.58594V9.87891C274.514 12.4049 273.498 14.6641 271.467 16.6562C270.373 17.5677 269.312 18.1862 268.284 18.5117L274.28 28.9414L274.26 28.9805H271.057C270.966 28.8893 270.191 27.5286 268.733 24.8984L265.432 19.0586H258.889V28.9414L258.83 29H256.213L256.155 28.9414V0.464844L256.213 0.40625ZM258.889 3.14062V16.3047H265.178C267.327 16.3047 269.13 15.3867 270.588 13.5508C271.383 12.3529 271.78 11.1159 271.78 9.83984V9.60547C271.78 7.6263 270.927 5.93359 269.221 4.52734C267.984 3.60286 266.63 3.14062 265.159 3.14062H258.889ZM303.837 0.40625H307.197C307.431 0.705729 309.977 4.59245 314.834 12.0664L314.931 12.1641L322.666 0.40625H325.986L326.045 0.464844L316.377 14.9766V28.9414L316.318 29H313.525L313.486 28.9414V14.9766L303.837 0.464844V0.40625Z" fill="white"/>
</svg>
