<svg width="482" height="44" viewBox="0 0 482 44" fill="none" xmlns="http://www.w3.org/2000/svg">
<path d="M0.187553 0.727627H5.55971C5.61748 0.727627 6.11811 1.92144 7.06161 4.30907L20.492 37.033H20.5209L35.4243 0.727627H40.8253L40.912 0.814275V42.9251L40.8253 43.0117H36.724L36.6374 42.9251V8.46816H36.6085L22.456 42.9828L22.4271 43.0117H18.6435C18.5665 43.0117 18.1429 42.0297 17.3727 40.0657C17.3149 40.0079 14.1186 32.2 7.78367 16.6419C5.81966 11.9437 4.69324 9.20948 4.40441 8.43928H4.37553V42.9251L4.28888 43.0117H0.187553L0.100906 42.9251V0.814275L0.187553 0.727627ZM87.8855 0.727627H92.8533C93.1998 1.17049 96.9642 6.91813 104.146 17.9705L104.291 18.1149L115.728 0.727627H120.638L120.725 0.814275L106.428 22.274V42.9251L106.341 43.0117H102.211L102.153 42.9251V22.274L87.8855 0.814275V0.727627ZM177.807 0.207741H178.269C180.233 0.207741 182.178 0.718 184.104 1.73852C184.701 2.08511 185.355 2.5376 186.068 3.096C186.395 3.36557 186.819 3.7603 187.339 4.28018C188.07 5.12741 188.59 5.81096 188.898 6.33085C189.168 6.7352 189.38 7.1203 189.534 7.48615V7.51503L185.866 9.19022C185.615 8.61257 185.115 7.90013 184.364 7.05291C182.592 5.18517 180.493 4.2513 178.067 4.2513H178.009C175.641 4.2513 173.667 4.96374 172.089 6.38861C171.511 6.96626 171.116 7.42838 170.904 7.77498C170.076 9.10357 169.662 10.5477 169.662 12.1074C169.662 13.7633 170.153 15.0438 171.135 15.9487C171.867 16.6419 172.734 17.21 173.735 17.6528C175.468 18.4808 178.221 19.3376 181.995 20.2234C182.977 20.4929 183.805 20.8106 184.479 21.1765C185.307 21.5808 186.145 22.1585 186.992 22.9094C187.666 23.5641 188.099 24.0359 188.292 24.3247C188.638 24.7868 188.908 25.2104 189.1 25.5955C190.025 27.3285 190.487 29.1192 190.487 30.9677V31.0543L190.516 31.1699L190.487 31.2854V31.372C190.487 33.3938 189.957 35.3963 188.898 37.3796C187.531 39.825 185.461 41.5965 182.688 42.694C181.071 43.2909 179.502 43.5894 177.981 43.5894H177.49C175.583 43.5894 173.639 43.1176 171.655 42.1741C171.02 41.8468 170.336 41.4135 169.605 40.8744C168.526 40.0464 167.564 39.0741 166.716 37.9573C166.1 37.0908 165.59 36.2532 165.186 35.4445C164.839 34.7128 164.666 34.3277 164.666 34.2892C164.743 34.2507 165.985 33.7308 168.392 32.7295C168.796 33.673 169.277 34.5395 169.836 35.329C170.048 35.6563 170.471 36.1473 171.107 36.802C171.896 37.5529 172.57 38.0632 173.128 38.3327C174.572 39.1415 176.094 39.5458 177.692 39.5458H177.836C179.704 39.5458 181.456 38.997 183.093 37.8995C183.459 37.6684 183.892 37.293 184.393 36.7731C185.163 35.8873 185.711 34.8957 186.039 33.7982C186.308 32.9124 186.443 32.0556 186.443 31.2276V31.141C186.443 29.1192 185.76 27.4055 184.393 25.9999C183.68 25.3837 183.112 24.989 182.688 24.8157C182.419 24.6424 182.015 24.4691 181.475 24.2958C181.09 24.161 180.099 23.9011 178.5 23.516C175.304 22.688 172.868 21.8215 171.193 20.9165C167.477 18.9525 165.619 16.0546 165.619 12.2229V11.9918C165.619 9.5657 166.341 7.2936 167.785 5.17554C168.016 4.82895 168.44 4.32832 169.056 3.67365C169.768 2.99972 170.375 2.51835 170.875 2.22952C171.684 1.69038 172.589 1.24751 173.59 0.900923C175.054 0.438802 176.459 0.207741 177.807 0.207741ZM234.225 0.727627H260.884L260.913 0.75651V4.74231L260.884 4.77119H249.591V42.9828L249.562 43.0117H245.576L245.547 42.9828V4.77119H234.225L234.196 4.74231V0.75651L234.225 0.727627ZM307.482 0.727627H328.48L328.508 0.75651V4.74231L328.48 4.77119H311.497V19.8479H325.071L325.1 19.8768V23.8626L325.071 23.8915H311.497V38.9682H328.48L328.508 38.997V42.9828L328.48 43.0117H307.482L307.453 42.9828V0.75651L307.482 0.727627ZM377.821 0.727627H391.079C395.141 0.727627 398.665 2.34505 401.65 5.5799C403.806 8.29486 404.884 11.2024 404.884 14.3024V14.7357C404.884 18.4712 403.383 21.8119 400.379 24.7579C398.761 26.1058 397.192 27.0204 395.671 27.5018L404.538 42.9251L404.509 42.9828H399.772C399.637 42.8481 398.492 40.8359 396.335 36.9464L391.454 28.3105H381.778V42.9251L381.692 43.0117H377.821L377.735 42.9251V0.814275L377.821 0.727627ZM381.778 4.77119V24.238H391.079C394.256 24.238 396.922 22.8806 399.079 20.1656C400.254 18.3941 400.841 16.5649 400.841 14.6779V14.3313C400.841 11.4046 399.58 8.9014 397.057 6.82185C395.228 5.45474 393.226 4.77119 391.05 4.77119H381.778ZM448.248 0.727627H453.215C453.562 1.17049 457.326 6.91813 464.508 17.9705L464.653 18.1149L476.09 0.727627H481L481.087 0.814275L466.79 22.274V42.9251L466.704 43.0117H462.573L462.516 42.9251V22.274L448.248 0.814275V0.727627Z" fill="white"/>
</svg>
