<svg width="458" height="87" viewBox="0 0 458 87" fill="none" xmlns="http://www.w3.org/2000/svg">
<path d="M18.7992 9.96842C18.7992 10.2332 18.7594 10.4715 18.68 10.6833C18.6271 10.8686 18.5609 11.0672 18.4814 11.279C18.0314 12.338 17.5548 13.3838 17.0518 14.4163C16.5487 15.4224 16.1516 16.4947 15.8604 17.6331C14.8808 21.6045 14.1394 25.6156 13.6364 29.6663C13.1598 33.7171 12.8421 37.7944 12.6833 41.8981C14.4042 42.2688 15.9398 42.8777 17.29 43.7249C18.6668 44.5722 20.0038 45.5782 21.3011 46.7432C23.8163 45.6841 26.0932 44.3604 28.1318 42.7718C30.1969 41.1833 31.9576 39.3564 33.4137 37.2913C34.8699 35.2262 35.9951 32.9361 36.7894 30.4209C37.5837 27.9057 37.9808 25.2184 37.9808 22.359C37.9808 20.7705 37.7425 19.1555 37.266 17.514C36.8159 15.846 36.1672 14.231 35.32 12.6689C34.4992 11.1069 33.5064 9.63748 32.3415 8.26074C31.203 6.884 29.9322 5.6926 28.529 4.68652C27.1258 3.65397 25.6166 2.84646 24.0016 2.264C22.4131 1.65505 20.7584 1.35058 19.0374 1.35058C17.3959 1.35058 15.6883 1.65505 13.9144 2.264C12.167 2.87294 10.5652 3.7334 9.10905 4.84538C7.65289 5.93088 6.46148 7.24143 5.53483 8.77702C4.60818 10.3126 4.14486 11.9938 4.14486 13.8206C4.14486 14.5355 4.22428 15.1841 4.38314 15.7666C4.56847 16.3226 4.7538 16.8389 4.93913 17.3154C5.15093 17.792 5.33626 18.2421 5.49512 18.6657C5.68045 19.0628 5.77311 19.4732 5.77311 19.8968C5.77311 20.6646 5.50836 21.3133 4.97884 21.8428C4.4758 22.3458 3.85362 22.5973 3.1123 22.5973C2.42394 22.5973 1.88118 22.412 1.48405 22.0413C1.08691 21.6707 0.769206 21.2074 0.530925 20.6514C0.319119 20.0954 0.173503 19.5129 0.0940756 18.904C0.0411242 18.2686 0.0146485 17.7126 0.0146485 17.236C0.0146485 14.9061 0.570638 12.8013 1.68262 10.9215C2.7946 9.04177 4.22428 7.34733 5.97168 5.83821C7.08366 4.88509 8.19564 4.05111 9.30762 3.33626C10.4461 2.62142 11.611 2.01248 12.8024 1.50944C14.0203 1.0064 15.2779 0.63574 16.5752 0.397459C17.8725 0.132702 19.2625 0.000323802 20.7451 0.000323802C22.8632 0.000323802 24.9018 0.265081 26.861 0.794595C28.8467 1.32411 30.7 2.07867 32.4209 3.05827C34.1683 4.03787 35.7568 5.21604 37.1865 6.59277C38.6427 7.96951 39.887 9.5051 40.9196 11.1995C41.9521 12.894 42.7464 14.734 43.3024 16.7197C43.8849 18.6789 44.1761 20.744 44.1761 22.915C44.1761 26.1186 43.5936 29.0706 42.4287 31.7712C41.2903 34.4717 39.7414 36.8942 37.7822 39.0387C35.823 41.1568 33.5461 42.9969 30.9515 44.5589C28.3569 46.0945 25.6299 47.2992 22.7705 48.1729C23.0617 48.4641 23.3397 48.7421 23.6045 49.0068C23.8957 49.2716 24.187 49.5496 24.4782 49.8408C26.0667 51.4029 27.642 53.0576 29.2041 54.805C30.7926 56.5524 32.4209 58.2866 34.0889 60.0075C35.7568 61.7284 37.4778 63.3699 39.2516 64.932C41.0255 66.5205 42.9053 67.9105 44.891 69.1019C46.8766 70.3198 48.9814 71.2861 51.2054 72.001C53.4558 72.7158 55.8651 73.0732 58.4333 73.0732C58.8834 73.0732 59.307 73.0468 59.7041 72.9938C60.1277 72.9673 60.5646 72.8879 61.0147 72.7555L61.2132 73.5498C60.0483 74.1587 58.8172 74.5956 57.5199 74.8604C56.2225 75.1251 54.8988 75.2575 53.5485 75.2575C50.7421 75.2575 48.1872 74.9663 45.8838 74.3838C43.5804 73.8278 41.4491 73.0335 39.4899 72.001C37.5307 70.9684 35.7171 69.7241 34.0492 68.2679C32.3812 66.8382 30.7794 65.2629 29.2438 63.542C27.7082 61.8211 26.1991 59.981 24.7165 58.0218C23.2603 56.0891 21.7512 54.0902 20.1891 52.0251C19.8449 51.575 19.5008 51.1249 19.1566 50.6748C18.8389 50.1982 18.5212 49.7349 18.2035 49.2848C17.2503 49.4437 16.2972 49.5761 15.3441 49.682C14.4174 49.7614 13.4908 49.8143 12.5641 49.8408C12.5641 53.0709 12.6436 56.2612 12.8024 59.4118C12.9613 62.5624 13.1466 65.66 13.3584 68.7048L12.6038 68.943C11.5183 66.1366 10.6844 63.0654 10.1019 59.7295C9.5459 56.3936 9.12229 53.0311 8.83106 49.6423C8.14269 49.5363 7.46756 49.3907 6.80566 49.2054C6.14377 49.0201 5.53483 48.7686 4.97884 48.4508C4.44933 48.1067 4.01248 47.6963 3.66829 47.2197C3.35059 46.7167 3.19173 46.121 3.19173 45.4326C3.19173 44.7972 3.35059 44.2544 3.66829 43.8044C3.986 43.3278 4.39638 42.9439 4.89941 42.6527C5.42893 42.335 5.99816 42.0967 6.6071 41.9378C7.21604 41.7525 7.82498 41.6334 8.43392 41.5804C8.40744 40.8391 8.39421 40.111 8.39421 39.3962C8.39421 38.6548 8.39421 37.94 8.39421 37.2516C8.39421 36.1661 8.39421 34.8159 8.39421 33.2008C8.42068 31.5858 8.48687 29.8649 8.59277 28.0381C8.72515 26.2113 8.92372 24.358 9.18848 22.4782C9.45323 20.5719 9.81066 18.7848 10.2607 17.1169C10.7373 15.4489 11.333 13.9663 12.0479 12.6689C12.7892 11.3716 13.6893 10.4185 14.7484 9.80957C15.1455 9.57129 15.5824 9.35948 16.0589 9.17415C16.5355 8.96235 17.0385 8.85644 17.568 8.85644C18.3888 8.85644 18.7992 9.2271 18.7992 9.96842ZM4.58171 45.5915C4.58171 45.9621 4.70085 46.2931 4.93913 46.5843C5.17741 46.8755 5.49512 47.1403 5.89225 47.3786C6.28939 47.5904 6.72624 47.7757 7.2028 47.9346C7.70584 48.0934 8.22211 48.2258 8.75163 48.3317C8.69868 47.4315 8.64573 46.5446 8.59277 45.6709C8.5663 44.7707 8.52658 43.8838 8.47363 43.0101C8.02355 43.0101 7.56022 43.0366 7.08366 43.0895C6.63357 43.1425 6.2232 43.2616 5.85254 43.4469C5.48188 43.6323 5.17741 43.897 4.93913 44.2412C4.70085 44.5589 4.58171 45.009 4.58171 45.5915ZM12.5641 48.6891C13.3849 48.6891 14.1924 48.6362 14.9867 48.5303C15.7809 48.4244 16.562 48.2788 17.3298 48.0934C16.6679 47.1933 15.953 46.3725 15.1852 45.6312C14.4439 44.8634 13.5834 44.2544 12.6038 43.8044C12.5774 44.6251 12.5641 45.4459 12.5641 46.2666C12.5641 47.0609 12.5641 47.8684 12.5641 48.6891ZM68.2822 43.2484C68.2822 45.1017 67.9778 46.8226 67.3688 48.4111C66.7599 49.9997 65.8994 51.3764 64.7874 52.5413C63.6755 53.7063 62.3384 54.6197 60.7764 55.2816C59.2408 55.9435 57.5331 56.2744 55.6533 56.2744C53.9854 56.2744 52.4762 55.9567 51.126 55.3213C49.8022 54.7123 48.6637 53.8784 47.7106 52.8193C46.7575 51.7603 46.0294 50.5292 45.5264 49.126C45.0233 47.6963 44.7718 46.1739 44.7718 44.5589C44.7718 43.2087 44.9571 41.9246 45.3278 40.7067C45.7249 39.4888 46.2677 38.3636 46.9561 37.3311C47.6444 36.272 48.4652 35.3057 49.4183 34.432C50.3714 33.5318 51.404 32.7243 52.516 32.0094L52.9925 32.3669C51.8805 33.6642 51.0068 35.0939 50.3714 36.6559C49.736 38.218 49.4183 39.8727 49.4183 41.6201C49.4183 42.891 49.6036 44.1883 49.9743 45.512C50.3714 46.8094 50.9406 48.0008 51.682 49.0863C52.4233 50.1718 53.3499 51.0587 54.4619 51.7471C55.5739 52.4354 56.8447 52.7796 58.2744 52.7796C59.1746 52.7796 60.0218 52.5943 60.8161 52.2236C61.6104 51.853 62.2987 51.3499 62.8812 50.7145C63.4901 50.0791 63.9667 49.3643 64.3109 48.57C64.6815 47.7492 64.8669 46.902 64.8669 46.0283C64.8669 45.1811 64.7345 44.3604 64.4697 43.5661C64.2314 42.7453 63.8873 41.9908 63.4372 41.3024C62.9871 40.5876 62.4443 39.9521 61.8089 39.3962C61.1735 38.8137 60.4851 38.3371 59.7438 37.9665C59.3202 37.7547 58.9098 37.5958 58.5127 37.4899C58.142 37.384 57.7317 37.2649 57.2816 37.1325C57.0962 37.106 56.8977 37.0663 56.6859 37.0133C56.4741 36.9339 56.2755 36.8545 56.0902 36.7751C55.9048 36.6692 55.746 36.5368 55.6136 36.3779C55.4812 36.2191 55.415 36.0205 55.415 35.7822C55.415 35.3057 55.5871 34.8688 55.9313 34.4717C56.2755 34.0745 56.6859 33.7304 57.1624 33.4391C57.639 33.1214 58.142 32.8831 58.6715 32.7243C59.2011 32.539 59.6644 32.4463 60.0615 32.4463C61.4118 32.4463 62.6032 32.7905 63.6357 33.4788C64.6683 34.1672 65.5288 35.0409 66.2171 36.0999C66.9055 37.159 67.4218 38.3239 67.766 39.5947C68.1101 40.8656 68.2822 42.0834 68.2822 43.2484ZM118.679 49.2848C118.202 50.238 117.633 51.1646 116.971 52.0648C116.309 52.9385 115.568 53.7195 114.747 54.4079C113.926 55.0962 113.013 55.639 112.007 56.0361C111.027 56.4597 109.955 56.6715 108.79 56.6715C107.149 56.6715 105.812 56.1156 104.779 55.0036C103.746 53.8916 102.899 52.4487 102.237 50.6748C101.602 48.8745 101.099 46.8491 100.728 44.5986C100.358 42.3217 100.04 40.0316 99.7751 37.7282C99.1661 38.8137 98.5969 39.9521 98.0674 41.1436C97.5643 42.3085 97.0745 43.5396 96.598 44.8369C96.1214 46.1342 95.6449 47.4712 95.1683 48.848C94.6917 50.2247 94.1755 51.6412 93.6195 53.0973C93.4871 53.415 93.3415 53.7725 93.1826 54.1696C93.0238 54.5403 92.812 54.8977 92.5472 55.2419C92.3089 55.6125 92.0177 55.917 91.6735 56.1553C91.3293 56.3936 90.9189 56.5127 90.4424 56.5127C90.0982 56.5127 89.7937 56.4333 89.529 56.2744C89.2642 56.1156 89.0259 55.917 88.8141 55.6787C88.6288 55.4669 88.4567 55.2286 88.2979 54.9639C88.1655 54.6726 88.0463 54.4079 87.9404 54.1696C87.4109 52.9782 86.9873 51.7603 86.6696 50.516C86.3519 49.2716 86.0739 47.9875 85.8356 46.6637C85.6238 45.34 85.4385 43.9367 85.2796 42.4541C85.1208 40.9715 84.9619 39.3962 84.8031 37.7282C84.2471 39.0255 83.744 40.2699 83.2939 41.4613C82.8703 42.6262 82.4467 43.8044 82.0231 44.9958C81.626 46.1607 81.2156 47.3786 80.792 48.6494C80.3949 49.8938 79.9712 51.244 79.5212 52.7002C79.4153 53.0444 79.2961 53.415 79.1637 53.8122C79.0578 54.1828 78.9122 54.527 78.7269 54.8447C78.568 55.1624 78.343 55.4272 78.0518 55.639C77.787 55.8508 77.4428 55.9567 77.0192 55.9567C76.3308 55.9567 75.8278 55.7317 75.5101 55.2816C75.1924 54.858 74.9276 54.3549 74.7158 53.7725C74.3981 52.9782 74.0936 51.8794 73.8024 50.4762C73.5112 49.0465 73.2464 47.4977 73.0081 45.8298C72.7699 44.1618 72.5845 42.4409 72.4522 40.667C72.3198 38.8931 72.2536 37.2384 72.2536 35.7028C72.2536 34.2202 72.6507 33.1347 73.445 32.4463C74.2393 31.7314 75.2851 31.374 76.5824 31.374C76.6618 31.374 76.7809 31.374 76.9398 31.374C77.0986 31.374 77.2575 31.4005 77.4163 31.4534C77.5752 31.4799 77.7076 31.5329 77.8135 31.6123C77.9459 31.6917 77.9988 31.7976 77.9723 31.93C77.7341 33.7833 77.5752 35.5439 77.4958 37.2119C77.4163 38.8799 77.3899 40.5081 77.4163 42.0967C77.4428 43.6587 77.5222 45.2076 77.6546 46.7432C77.8135 48.2523 78.012 49.8011 78.2503 51.3896C78.7004 49.8805 79.1373 48.4376 79.5609 47.0609C80.011 45.6841 80.4743 44.3206 80.9508 42.9704C81.4274 41.6201 81.9304 40.2566 82.46 38.8799C83.016 37.4767 83.6117 36.0073 84.2471 34.4717C84.5913 33.6774 84.9487 33.1214 85.3193 32.8037C85.7165 32.486 86.2195 32.3271 86.8285 32.3271C87.5962 32.3271 88.192 32.6184 88.6156 33.2008C89.0656 33.7833 89.3569 34.4452 89.4893 35.1865C89.7011 36.5368 89.8864 37.9268 90.0453 39.3564C90.2041 40.7597 90.3762 42.1761 90.5615 43.6058C90.7469 45.0355 90.9719 46.4519 91.2367 47.8551C91.5014 49.2319 91.8456 50.5689 92.2692 51.8662C92.7987 50.4895 93.3282 49.0598 93.8578 47.5771C94.3873 46.068 94.93 44.5589 95.486 43.0498C96.042 41.5407 96.6245 40.0581 97.2334 38.6019C97.8688 37.1457 98.5439 35.769 99.2588 34.4717C99.603 33.8627 99.9869 33.3597 100.41 32.9626C100.861 32.539 101.417 32.3271 102.078 32.3271C102.449 32.3271 102.78 32.4198 103.071 32.6051C103.363 32.764 103.614 32.989 103.826 33.2803C104.038 33.545 104.21 33.8495 104.342 34.1937C104.475 34.5114 104.567 34.8423 104.62 35.1865C104.752 35.9543 104.872 36.9472 104.978 38.165C105.11 39.3829 105.269 40.6802 105.454 42.057C105.666 43.4337 105.917 44.8237 106.209 46.2269C106.5 47.6036 106.871 48.8612 107.321 49.9997C107.771 51.1117 108.313 52.0251 108.949 52.7399C109.584 53.4548 110.352 53.8122 111.252 53.8122C111.994 53.8122 112.708 53.6798 113.397 53.415C114.085 53.1238 114.734 52.7664 115.343 52.3428C115.952 51.8927 116.508 51.3896 117.011 50.8337C117.54 50.2512 118.017 49.682 118.44 49.126L118.679 49.2848ZM135.835 34.154C135.835 34.4452 135.729 34.71 135.517 34.9482C135.305 35.16 135.054 35.2659 134.763 35.2659C134.524 35.2659 134.273 35.1998 134.008 35.0674C133.743 34.9085 133.439 34.7364 133.095 34.5511C132.777 34.3658 132.393 34.2069 131.943 34.0745C131.519 33.9157 131.03 33.8363 130.474 33.8363C129.176 33.8363 128.011 34.2466 126.979 35.0674C125.973 35.8617 125.112 36.8545 124.397 38.0459C123.709 39.2373 123.18 40.5081 122.809 41.8584C122.438 43.2087 122.253 44.4265 122.253 45.512C122.253 46.2798 122.319 47.0344 122.451 47.7757C122.584 48.4906 122.809 49.1525 123.127 49.7614C123.471 50.3439 123.934 50.8204 124.517 51.1911C125.099 51.5353 125.84 51.7074 126.741 51.7074C127.694 51.7074 128.607 51.5353 129.481 51.1911C130.354 50.8204 131.175 50.3439 131.943 49.7614C131.97 48.9142 132.102 48.0272 132.34 47.1006C132.605 46.1475 132.936 45.2208 133.333 44.3206C133.73 43.394 134.18 42.5203 134.683 41.6995C135.213 40.8788 135.756 40.1507 136.312 39.5153L136.828 39.833C136.537 40.7332 136.325 41.6598 136.192 42.613C136.06 43.5661 135.994 44.506 135.994 45.4326C135.994 46.3857 136.073 47.2859 136.232 48.1331C136.391 48.9804 136.669 49.7217 137.066 50.3571C137.463 50.966 138.006 51.4558 138.694 51.8265C139.383 52.1707 140.27 52.3428 141.355 52.3428C142.679 52.3428 143.897 52.0383 145.009 51.4294C146.121 50.8204 147.1 50.0526 147.948 49.126L148.265 49.2848C147.789 50.2115 147.167 51.0984 146.399 51.9456C145.631 52.7929 144.771 53.5607 143.817 54.249C142.891 54.9109 141.898 55.4404 140.839 55.8376C139.78 56.2347 138.734 56.4333 137.701 56.4333C136.245 56.4333 135.054 56.0097 134.127 55.1624C133.201 54.3417 132.565 53.2959 132.221 52.0251C131.109 53.137 129.865 54.0769 128.488 54.8447C127.138 55.586 125.708 55.9567 124.199 55.9567C123.087 55.9567 122.094 55.7449 121.22 55.3213C120.373 54.9242 119.658 54.3814 119.076 53.693C118.493 53.0047 118.043 52.1972 117.726 51.2705C117.434 50.3174 117.289 49.3245 117.289 48.292C117.289 47.1006 117.474 45.8827 117.845 44.6383C118.242 43.3675 118.771 42.1232 119.433 40.9053C120.122 39.6874 120.929 38.5357 121.856 37.4502C122.782 36.3647 123.789 35.4116 124.874 34.5908C125.986 33.7701 127.151 33.1214 128.369 32.6449C129.587 32.1683 130.831 31.93 132.102 31.93C132.393 31.93 132.751 31.9697 133.174 32.0492C133.598 32.1021 134.008 32.208 134.405 32.3669C134.802 32.5257 135.133 32.7508 135.398 33.042C135.689 33.3332 135.835 33.7039 135.835 34.154ZM180.672 49.2848C180.169 50.238 179.626 51.1514 179.043 52.0251C178.487 52.8988 177.852 53.6666 177.137 54.3285C176.422 54.9903 175.615 55.5199 174.715 55.917C173.814 56.3141 172.782 56.5127 171.617 56.5127C170.293 56.5127 169.155 56.1817 168.202 55.5199C167.248 54.8844 166.428 54.0372 165.739 52.9782C165.077 51.8927 164.535 50.6616 164.111 49.2848C163.714 47.9081 163.383 46.5049 163.118 45.0752C162.853 43.6455 162.655 42.2423 162.522 40.8656C162.39 39.4623 162.271 38.2048 162.165 37.0928C161.662 37.4899 161.053 38.2577 160.338 39.3962C159.623 40.5081 158.895 41.8187 158.154 43.3278C157.413 44.8369 156.698 46.4784 156.009 48.2523C155.348 50.0262 154.805 51.7735 154.381 53.4945C154.302 53.8651 154.169 54.249 153.984 54.6462C153.825 55.0433 153.613 55.4007 153.349 55.7184C153.11 56.0626 152.819 56.3406 152.475 56.5524C152.131 56.7907 151.747 56.9098 151.323 56.9098C150.635 56.9098 150.132 56.6715 149.814 56.195C149.523 55.7184 149.311 55.1757 149.179 54.5667C148.411 51.2043 147.868 47.9875 147.55 44.9163C147.259 41.8452 147.114 38.774 147.114 35.7028C147.114 34.9615 147.233 34.3261 147.471 33.7965C147.736 33.2406 148.08 32.7905 148.504 32.4463C148.927 32.0756 149.43 31.8109 150.013 31.652C150.595 31.4667 151.204 31.374 151.84 31.374C151.919 31.374 152.038 31.374 152.197 31.374C152.382 31.374 152.554 31.4005 152.713 31.4534C152.872 31.4799 153.004 31.5329 153.11 31.6123C153.216 31.6917 153.256 31.7976 153.229 31.93C152.541 35.3983 152.21 38.9328 152.237 42.5335C152.263 46.1077 152.448 49.5496 152.793 52.859C153.084 51.5353 153.507 50.0394 154.063 48.3714C154.646 46.677 155.308 44.9825 156.049 43.2881C156.817 41.5672 157.638 39.9389 158.511 38.4033C159.412 36.8413 160.325 35.5307 161.252 34.4717C161.702 33.9686 162.152 33.545 162.602 33.2008C163.078 32.8302 163.661 32.6449 164.349 32.6449C164.746 32.6449 165.077 32.7243 165.342 32.8831C165.607 33.042 165.819 33.2406 165.978 33.4788C166.163 33.7171 166.295 33.9951 166.375 34.3128C166.481 34.6041 166.56 34.8953 166.613 35.1865C166.745 35.9543 166.878 36.9472 167.01 38.165C167.142 39.3829 167.301 40.6802 167.487 42.057C167.698 43.4337 167.95 44.8237 168.241 46.2269C168.532 47.6036 168.903 48.8612 169.353 49.9997C169.803 51.1117 170.346 52.0251 170.981 52.7399C171.617 53.4548 172.371 53.8122 173.245 53.8122C173.96 53.8122 174.648 53.6798 175.31 53.415C175.999 53.1238 176.647 52.7664 177.256 52.3428C177.865 51.8927 178.434 51.3896 178.964 50.8337C179.493 50.2512 179.97 49.682 180.394 49.126L180.672 49.2848ZM204.222 49.2848C203.639 50.2644 202.951 51.1778 202.157 52.0251C201.389 52.8723 200.528 53.6136 199.575 54.249C198.649 54.8844 197.642 55.3742 196.557 55.7184C195.471 56.0891 194.346 56.2744 193.181 56.2744C191.46 56.2744 189.938 55.9832 188.614 55.4007C187.317 54.8183 186.192 54.0372 185.239 53.0576C184.285 52.0515 183.491 50.8866 182.856 49.5628C182.22 48.239 181.717 46.8623 181.347 45.4326C180.976 43.9765 180.711 42.4938 180.552 40.9847C180.394 39.4756 180.314 38.0327 180.314 36.6559C180.314 35.3851 180.367 34.0878 180.473 32.764C180.579 31.4137 180.738 30.037 180.95 28.6338C180.129 28.6603 179.321 28.6735 178.527 28.6735C177.759 28.6735 176.991 28.6735 176.224 28.6735C175.721 28.6735 175.151 28.6603 174.516 28.6338C173.881 28.6073 173.285 28.5014 172.729 28.3161C172.173 28.1308 171.71 27.8528 171.339 27.4821C170.968 27.1114 170.783 26.5687 170.783 25.8538C170.783 25.4567 170.862 25.139 171.021 24.9007C171.154 24.6624 171.352 24.4903 171.617 24.3844C171.855 24.2521 172.146 24.1726 172.491 24.1462C172.808 24.0932 173.139 24.0667 173.483 24.0667C173.881 24.0667 174.82 24.1329 176.303 24.2653C177.786 24.3977 179.573 24.5433 181.664 24.7021C182.326 21.578 183.174 18.5068 184.206 15.4886C185.265 12.4704 186.456 9.7169 187.78 7.22819H188.336C187.489 10.114 186.734 13.0264 186.073 15.9652C185.437 18.904 184.961 21.8825 184.643 24.9007C186.576 25.0331 188.561 25.1522 190.6 25.2581C192.665 25.3376 194.677 25.3773 196.636 25.3773C199.522 25.3773 201.865 25.3508 203.666 25.2979C205.466 25.2449 206.882 25.1787 207.915 25.0993C209.133 24.9934 210.046 24.8875 210.655 24.7816L210.814 25.4567C209.226 25.8274 207.412 26.1848 205.373 26.529C203.335 26.8467 201.164 27.1379 198.86 27.4027C196.557 27.6409 194.174 27.8528 191.712 28.0381C189.25 28.2234 186.801 28.369 184.365 28.4749C184.312 29.0044 184.285 29.5472 184.285 30.1032C184.285 30.6327 184.285 31.1622 184.285 31.6917C184.285 32.9626 184.338 34.3658 184.444 35.9014C184.577 37.437 184.802 38.9858 185.119 40.5479C185.437 42.0834 185.861 43.5926 186.39 45.0752C186.946 46.5314 187.661 47.8287 188.535 48.9671C189.435 50.0791 190.507 50.9793 191.752 51.6676C192.996 52.356 194.465 52.7002 196.16 52.7002C197.722 52.7002 199.125 52.356 200.369 51.6676C201.64 50.9793 202.845 50.1321 203.983 49.126L204.222 49.2848ZM211.37 22.915C211.37 23.4446 211.251 23.9741 211.013 24.5036C210.774 25.0331 210.457 25.5097 210.06 25.9333C209.689 26.3304 209.252 26.6613 208.749 26.9261C208.246 27.1909 207.73 27.3232 207.2 27.3232C206.512 27.3232 205.956 27.0982 205.532 26.6481C205.135 26.198 204.937 25.6288 204.937 24.9404C204.937 24.4109 205.056 23.8946 205.294 23.3916C205.532 22.8621 205.837 22.3988 206.207 22.0016C206.604 21.6045 207.041 21.2868 207.518 21.0485C208.021 20.7837 208.537 20.6514 209.067 20.6514C209.755 20.6514 210.311 20.8632 210.735 21.2868C211.158 21.7104 211.37 22.2531 211.37 22.915ZM222.49 49.2848C221.881 50.2909 221.153 51.2176 220.306 52.0648C219.485 52.8855 218.572 53.6136 217.565 54.249C216.586 54.858 215.527 55.3345 214.388 55.6787C213.276 56.0229 212.125 56.195 210.933 56.195C209.451 56.195 208.127 55.9435 206.962 55.4404C205.823 54.9374 204.857 54.249 204.063 53.3753C203.295 52.4752 202.699 51.4294 202.276 50.238C201.879 49.0201 201.68 47.6963 201.68 46.2666C201.68 44.731 201.905 43.2748 202.355 41.8981C202.805 40.5214 203.427 39.2373 204.222 38.0459C205.016 36.828 205.943 35.716 207.002 34.71C208.087 33.7039 209.239 32.8037 210.457 32.0094L210.933 32.3669C209.636 33.9025 208.577 35.6234 207.756 37.5296C206.962 39.4359 206.565 41.4215 206.565 43.4867C206.565 44.6781 206.697 45.8298 206.962 46.9417C207.253 48.0272 207.69 48.9936 208.272 49.8408C208.881 50.688 209.649 51.3632 210.576 51.8662C211.503 52.3692 212.628 52.6208 213.952 52.6208C215.514 52.6208 216.996 52.2898 218.399 51.6279C219.829 50.966 221.113 50.1321 222.252 49.126L222.49 49.2848ZM245.603 49.2848C244.915 50.4233 244.015 51.4426 242.903 52.3428C241.817 53.2165 240.613 53.971 239.289 54.6064C237.991 55.2154 236.628 55.6787 235.198 55.9964C233.795 56.3406 232.445 56.5127 231.147 56.5127C229.559 56.5127 228.076 56.2744 226.7 55.7979C225.349 55.3213 224.158 54.6329 223.125 53.7327C222.119 52.8061 221.325 51.7074 220.743 50.4365C220.187 49.1392 219.909 47.6698 219.909 46.0283C219.909 44.175 220.239 42.3614 220.901 40.5876C221.59 38.8137 222.53 37.2384 223.721 35.8617C224.939 34.4849 226.369 33.3862 228.01 32.5654C229.678 31.7182 231.478 31.2946 233.411 31.2946C234.047 31.2946 234.682 31.3608 235.317 31.4932C235.953 31.6255 236.535 31.8506 237.065 32.1683C237.594 32.4595 238.018 32.8567 238.336 33.3597C238.68 33.8627 238.852 34.4982 238.852 35.2659C238.852 36.0337 238.653 36.7089 238.256 37.2913C237.859 37.8473 237.356 38.3107 236.747 38.6813C236.138 39.052 235.476 39.3564 234.761 39.5947C234.073 39.8065 233.411 39.9654 232.776 40.0713V39.5153C233.146 39.4094 233.544 39.2638 233.967 39.0785C234.417 38.8931 234.828 38.6548 235.198 38.3636C235.569 38.0724 235.873 37.7282 236.112 37.3311C236.376 36.9339 236.509 36.4971 236.509 36.0205C236.509 35.6498 236.416 35.3454 236.231 35.1071C236.072 34.8423 235.86 34.6305 235.595 34.4717C235.357 34.3128 235.079 34.1937 234.761 34.1143C234.444 34.0348 234.126 33.9951 233.808 33.9951C232.458 33.9951 231.24 34.2996 230.155 34.9085C229.096 35.491 228.195 36.272 227.454 37.2516C226.713 38.2312 226.144 39.33 225.746 40.5479C225.376 41.7657 225.19 42.9969 225.19 44.2412C225.19 45.6709 225.402 46.955 225.826 48.0934C226.276 49.2054 226.898 50.1585 227.692 50.9528C228.487 51.7471 229.453 52.356 230.591 52.7796C231.73 53.2032 233.001 53.415 234.404 53.415C235.304 53.415 236.257 53.3224 237.263 53.137C238.296 52.9252 239.289 52.634 240.242 52.2633C241.221 51.8927 242.148 51.4426 243.022 50.9131C243.896 50.3836 244.65 49.7879 245.285 49.126L245.603 49.2848ZM306.365 12.9072C306.365 14.8135 306.007 16.6006 305.293 18.2686C304.578 19.9365 303.611 21.4721 302.394 22.8753C301.202 24.2521 299.812 25.4964 298.224 26.6084C296.635 27.7204 294.967 28.6603 293.22 29.4281C291.472 30.1694 289.685 30.7518 287.858 31.1755C286.058 31.5726 284.337 31.7712 282.696 31.7712H282.457V30.9769C284.84 30.6857 287.144 29.9576 289.368 28.7926C291.618 27.6012 293.604 26.1054 295.325 24.305C297.072 22.5047 298.462 20.466 299.494 18.1891C300.553 15.9122 301.083 13.5294 301.083 11.0407C301.083 9.69043 300.898 8.47255 300.527 7.38704C300.183 6.27506 299.653 5.33518 298.938 4.56738C298.25 3.77311 297.376 3.16417 296.317 2.74056C295.258 2.31695 294.027 2.10514 292.624 2.10514C289.791 2.10514 287.223 2.71408 284.92 3.93196C282.643 5.12337 280.617 6.72515 278.843 8.7373C277.07 10.723 275.534 13.0131 274.237 15.6077C272.966 18.2024 271.907 20.9029 271.06 23.7093C270.239 26.5157 269.63 29.3354 269.233 32.1683C268.836 34.9747 268.637 37.5826 268.637 39.9919C268.637 41.9246 268.756 43.8838 268.994 45.8695C269.259 47.8287 269.67 49.7217 270.226 51.5485C270.782 53.3753 271.496 55.083 272.37 56.6715C273.244 58.2866 274.29 59.6898 275.507 60.8812C276.752 62.0726 278.182 63.0125 279.797 63.7008C281.412 64.3892 283.252 64.7334 285.317 64.7334C286.746 64.7334 288.123 64.4686 289.447 63.9391C290.771 63.4096 292.015 62.708 293.18 61.8343C294.345 60.9606 295.391 59.9678 296.317 58.8558C297.271 57.7438 298.078 56.6054 298.74 55.4404L299.216 55.6787C298.766 57.3202 297.999 58.9352 296.913 60.5238C295.828 62.1123 294.53 63.5155 293.021 64.7334C291.539 65.9778 289.91 66.9706 288.136 67.7119C286.389 68.4797 284.628 68.8636 282.854 68.8636C280.498 68.8636 278.367 68.4929 276.461 67.7516C274.554 67.0368 272.847 66.0307 271.338 64.7334C269.855 63.4626 268.571 61.9535 267.485 60.2061C266.4 58.4851 265.5 56.6186 264.785 54.6064C264.07 52.5678 263.54 50.4498 263.196 48.2523C262.852 46.0283 262.68 43.8044 262.68 41.5804C262.68 38.6681 262.984 35.6234 263.593 32.4463C264.202 29.2692 265.103 26.1451 266.294 23.0739C267.485 20.0027 268.942 17.0904 270.662 14.3369C272.41 11.557 274.409 9.1212 276.659 7.02962C278.91 4.91157 281.398 3.2436 284.125 2.02571C286.879 0.781357 289.844 0.159178 293.021 0.159178C295.007 0.159178 296.82 0.450411 298.462 1.03288C300.103 1.58887 301.507 2.40961 302.672 3.49512C303.863 4.58062 304.776 5.91764 305.412 7.50618C306.047 9.06825 306.365 10.8686 306.365 12.9072ZM325.705 43.2484C325.705 45.1017 325.401 46.8226 324.792 48.4111C324.183 49.9997 323.323 51.3764 322.211 52.5413C321.099 53.7063 319.762 54.6197 318.2 55.2816C316.664 55.9435 314.956 56.2744 313.077 56.2744C311.409 56.2744 309.899 55.9567 308.549 55.3213C307.225 54.7123 306.087 53.8784 305.134 52.8193C304.181 51.7603 303.453 50.5292 302.95 49.126C302.447 47.6963 302.195 46.1739 302.195 44.5589C302.195 43.2087 302.38 41.9246 302.751 40.7067C303.148 39.4888 303.691 38.3636 304.379 37.3311C305.068 36.272 305.888 35.3057 306.841 34.432C307.795 33.5318 308.827 32.7243 309.939 32.0094L310.416 32.3669C309.304 33.6642 308.43 35.0939 307.795 36.6559C307.159 38.218 306.841 39.8727 306.841 41.6201C306.841 42.891 307.027 44.1883 307.397 45.512C307.795 46.8094 308.364 48.0008 309.105 49.0863C309.846 50.1718 310.773 51.0587 311.885 51.7471C312.997 52.4354 314.268 52.7796 315.698 52.7796C316.598 52.7796 317.445 52.5943 318.239 52.2236C319.034 51.853 319.722 51.3499 320.304 50.7145C320.913 50.0791 321.39 49.3643 321.734 48.57C322.105 47.7492 322.29 46.902 322.29 46.0283C322.29 45.1811 322.158 44.3604 321.893 43.5661C321.655 42.7453 321.31 41.9908 320.86 41.3024C320.41 40.5876 319.868 39.9521 319.232 39.3962C318.597 38.8137 317.908 38.3371 317.167 37.9665C316.743 37.7547 316.333 37.5958 315.936 37.4899C315.565 37.384 315.155 37.2649 314.705 37.1325C314.519 37.106 314.321 37.0663 314.109 37.0133C313.897 36.9339 313.699 36.8545 313.513 36.7751C313.328 36.6692 313.169 36.5368 313.037 36.3779C312.904 36.2191 312.838 36.0205 312.838 35.7822C312.838 35.3057 313.01 34.8688 313.355 34.4717C313.699 34.0745 314.109 33.7304 314.586 33.4391C315.062 33.1214 315.565 32.8831 316.095 32.7243C316.624 32.539 317.088 32.4463 317.485 32.4463C318.835 32.4463 320.026 32.7905 321.059 33.4788C322.091 34.1672 322.952 35.0409 323.64 36.0999C324.329 37.159 324.845 38.3239 325.189 39.5947C325.533 40.8656 325.705 42.0834 325.705 43.2484ZM376.102 49.2848C375.625 50.238 375.056 51.1646 374.394 52.0648C373.732 52.9385 372.991 53.7195 372.17 54.4079C371.35 55.0962 370.436 55.639 369.43 56.0361C368.45 56.4597 367.378 56.6715 366.213 56.6715C364.572 56.6715 363.235 56.1156 362.202 55.0036C361.17 53.8916 360.322 52.4487 359.661 50.6748C359.025 48.8745 358.522 46.8491 358.151 44.5986C357.781 42.3217 357.463 40.0316 357.198 37.7282C356.589 38.8137 356.02 39.9521 355.491 41.1436C354.988 42.3085 354.498 43.5396 354.021 44.8369C353.545 46.1342 353.068 47.4712 352.591 48.848C352.115 50.2247 351.599 51.6412 351.043 53.0973C350.91 53.415 350.765 53.7725 350.606 54.1696C350.447 54.5403 350.235 54.8977 349.97 55.2419C349.732 55.6125 349.441 55.917 349.097 56.1553C348.753 56.3936 348.342 56.5127 347.866 56.5127C347.521 56.5127 347.217 56.4333 346.952 56.2744C346.687 56.1156 346.449 55.917 346.237 55.6787C346.052 55.4669 345.88 55.2286 345.721 54.9639C345.589 54.6726 345.47 54.4079 345.364 54.1696C344.834 52.9782 344.411 51.7603 344.093 50.516C343.775 49.2716 343.497 47.9875 343.259 46.6637C343.047 45.34 342.862 43.9367 342.703 42.4541C342.544 40.9715 342.385 39.3962 342.226 37.7282C341.67 39.0255 341.167 40.2699 340.717 41.4613C340.294 42.6262 339.87 43.8044 339.446 44.9958C339.049 46.1607 338.639 47.3786 338.215 48.6494C337.818 49.8938 337.394 51.244 336.944 52.7002C336.838 53.0444 336.719 53.415 336.587 53.8122C336.481 54.1828 336.335 54.527 336.15 54.8447C335.991 55.1624 335.766 55.4272 335.475 55.639C335.21 55.8508 334.866 55.9567 334.442 55.9567C333.754 55.9567 333.251 55.7317 332.933 55.2816C332.616 54.858 332.351 54.3549 332.139 53.7725C331.821 52.9782 331.517 51.8794 331.226 50.4762C330.934 49.0465 330.67 47.4977 330.431 45.8298C330.193 44.1618 330.008 42.4409 329.875 40.667C329.743 38.8931 329.677 37.2384 329.677 35.7028C329.677 34.2202 330.074 33.1347 330.868 32.4463C331.662 31.7314 332.708 31.374 334.006 31.374C334.085 31.374 334.204 31.374 334.363 31.374C334.522 31.374 334.681 31.4005 334.84 31.4534C334.998 31.4799 335.131 31.5329 335.237 31.6123C335.369 31.6917 335.422 31.7976 335.396 31.93C335.157 33.7833 334.998 35.5439 334.919 37.2119C334.84 38.8799 334.813 40.5081 334.84 42.0967C334.866 43.6587 334.945 45.2076 335.078 46.7432C335.237 48.2523 335.435 49.8011 335.674 51.3896C336.124 49.8805 336.56 48.4376 336.984 47.0609C337.434 45.6841 337.897 44.3206 338.374 42.9704C338.851 41.6201 339.354 40.2566 339.883 38.8799C340.439 37.4767 341.035 36.0073 341.67 34.4717C342.014 33.6774 342.372 33.1214 342.743 32.8037C343.14 32.486 343.643 32.3271 344.252 32.3271C345.019 32.3271 345.615 32.6184 346.039 33.2008C346.489 33.7833 346.78 34.4452 346.912 35.1865C347.124 36.5368 347.31 37.9268 347.468 39.3564C347.627 40.7597 347.799 42.1761 347.985 43.6058C348.17 45.0355 348.395 46.4519 348.66 47.8551C348.925 49.2319 349.269 50.5689 349.692 51.8662C350.222 50.4895 350.751 49.0598 351.281 47.5771C351.81 46.068 352.353 44.5589 352.909 43.0498C353.465 41.5407 354.048 40.0581 354.657 38.6019C355.292 37.1457 355.967 35.769 356.682 34.4717C357.026 33.8627 357.41 33.3597 357.834 32.9626C358.284 32.539 358.84 32.3271 359.502 32.3271C359.872 32.3271 360.203 32.4198 360.494 32.6051C360.786 32.764 361.037 32.989 361.249 33.2803C361.461 33.545 361.633 33.8495 361.765 34.1937C361.898 34.5114 361.99 34.8423 362.043 35.1865C362.176 35.9543 362.295 36.9472 362.401 38.165C362.533 39.3829 362.692 40.6802 362.877 42.057C363.089 43.4337 363.341 44.8237 363.632 46.2269C363.923 47.6036 364.294 48.8612 364.744 49.9997C365.194 51.1117 365.737 52.0251 366.372 52.7399C367.008 53.4548 367.775 53.8122 368.675 53.8122C369.417 53.8122 370.132 53.6798 370.82 53.415C371.508 53.1238 372.157 52.7664 372.766 52.3428C373.375 51.8927 373.931 51.3896 374.434 50.8337C374.963 50.2512 375.44 49.682 375.864 49.126L376.102 49.2848ZM399.851 49.2848C399.162 50.2909 398.328 51.2308 397.349 52.1045C396.396 52.9782 395.336 53.7327 394.172 54.3682C393.033 55.0036 391.828 55.5066 390.558 55.8773C389.313 56.2479 388.056 56.4333 386.785 56.4333C384.984 56.4333 383.303 56.195 381.741 55.7184C380.179 55.2683 378.816 54.5667 377.651 53.6136C376.486 52.6605 375.572 51.4691 374.91 50.0394C374.249 48.5832 373.918 46.8888 373.918 44.9561C373.918 43.0498 374.262 41.2759 374.95 39.6344C375.665 37.9665 376.631 36.5235 377.849 35.3057C379.094 34.0613 380.55 33.0817 382.218 32.3669C383.886 31.652 385.673 31.2946 387.579 31.2946C388.479 31.2946 389.313 31.427 390.081 31.6917C390.875 31.93 391.564 32.3007 392.146 32.8037C392.729 33.2803 393.179 33.876 393.496 34.5908C393.841 35.3057 394.013 36.1264 394.013 37.0531C394.013 38.165 393.788 39.1446 393.338 39.9919C392.887 40.8391 392.292 41.5804 391.55 42.2158C390.809 42.8512 389.962 43.3808 389.009 43.8044C388.082 44.228 387.103 44.5722 386.07 44.8369C385.064 45.1017 384.058 45.3002 383.052 45.4326C382.072 45.5385 381.172 45.5915 380.351 45.5915H379.398C379.742 48.0008 380.695 49.8408 382.257 51.1117C383.82 52.3825 385.977 53.0179 388.731 53.0179C390.69 53.0179 392.596 52.6737 394.45 51.9854C396.329 51.297 398.024 50.3439 399.533 49.126L399.851 49.2848ZM379.279 44.4001H380.272C381.225 44.4001 382.205 44.2544 383.211 43.9632C384.217 43.6455 385.117 43.1954 385.911 42.613C386.732 42.004 387.407 41.2627 387.937 40.389C388.466 39.5153 388.731 38.5225 388.731 37.4105C388.731 36.325 388.493 35.4248 388.016 34.71C387.566 33.9951 386.772 33.6377 385.633 33.6377C384.468 33.6377 383.475 33.9951 382.655 34.71C381.86 35.3983 381.212 36.2588 380.709 37.2913C380.206 38.2974 379.835 39.3697 379.597 40.5081C379.385 41.6201 379.279 42.613 379.279 43.4867V44.4001ZM434.64 49.2848C434.216 50.1585 433.687 50.9528 433.051 51.6676C432.416 52.356 431.701 52.9517 430.907 53.4548C430.112 53.9313 429.265 54.302 428.365 54.5667C427.465 54.8315 426.525 54.9639 425.545 54.9639C423.48 54.9639 421.72 54.4608 420.263 53.4548C418.834 52.4487 417.629 51.1381 416.649 49.5231C415.935 50.3174 415.14 51.1117 414.267 51.9059C413.419 52.6737 412.506 53.3621 411.526 53.971C410.573 54.5535 409.58 55.0301 408.548 55.4007C407.515 55.7714 406.483 55.9567 405.45 55.9567C404.206 55.9567 403.094 55.7052 402.114 55.2021C401.135 54.6991 400.301 54.0372 399.612 53.2165C398.924 52.3692 398.394 51.4161 398.024 50.3571C397.653 49.2716 397.468 48.1464 397.468 46.9814C397.468 45.234 397.852 43.4734 398.619 41.6995C399.414 39.9257 400.446 38.3239 401.717 36.8942C403.014 35.438 404.497 34.2599 406.165 33.3597C407.833 32.4595 409.567 32.0094 411.368 32.0094C411.897 32.0094 412.36 32.0624 412.757 32.1683V30.5003C412.757 29.7325 412.784 28.7132 412.837 27.4424C412.89 26.1715 412.996 24.7683 413.155 23.2327C413.313 21.6707 413.512 20.0424 413.75 18.348C414.015 16.6271 414.346 14.9326 414.743 13.2646C415.167 11.5702 415.657 9.96842 416.213 8.45931C416.769 6.92372 417.417 5.5867 418.159 4.44824C418.9 3.28331 419.747 2.35666 420.7 1.66829C421.653 0.979925 422.726 0.63574 423.917 0.63574C425.32 0.63574 426.459 1.04611 427.332 1.86686C428.206 2.68761 428.894 3.70692 429.397 4.9248C429.901 6.11621 430.231 7.38704 430.39 8.7373C430.576 10.0876 430.668 11.2922 430.668 12.3512C430.668 13.728 430.536 15.3298 430.271 17.1566C430.006 18.9569 429.636 20.8764 429.159 22.915C428.683 24.9272 428.113 26.9923 427.452 29.1104C426.79 31.2284 426.075 33.267 425.307 35.2262C424.539 37.1854 423.705 39.0123 422.805 40.7067C421.931 42.3747 421.044 43.7911 420.144 44.9561C420.488 45.9886 420.899 46.9417 421.375 47.8154C421.878 48.6891 422.461 49.4437 423.123 50.0791C423.785 50.7145 424.539 51.2176 425.386 51.5882C426.234 51.9324 427.2 52.1045 428.285 52.1045C430.774 52.1045 432.813 51.1117 434.401 49.126L434.64 49.2848ZM418.357 27.1644C418.357 28.1175 418.357 29.2295 418.357 30.5003C418.357 31.7447 418.384 33.0685 418.437 34.4717C418.516 35.8749 418.635 37.3178 418.794 38.8005C418.979 40.2566 419.244 41.6731 419.588 43.0498C420.7 40.9053 421.72 38.5622 422.646 36.0205C423.573 33.4524 424.367 30.8313 425.029 28.1572C425.717 25.4567 426.247 22.7694 426.618 20.0954C426.988 17.4213 427.174 14.8929 427.174 12.5101C427.174 12.0071 427.147 11.279 427.094 10.3258C427.041 9.37272 426.896 8.43283 426.657 7.50618C426.419 6.55306 426.062 5.73231 425.585 5.04394C425.108 4.3291 424.46 3.97168 423.639 3.97168C423.004 3.97168 422.434 4.27615 421.931 4.88509C421.428 5.46755 420.991 6.26183 420.621 7.2679C420.25 8.2475 419.932 9.37272 419.668 10.6436C419.429 11.9144 419.218 13.2382 419.032 14.6149C418.873 15.9916 418.741 17.3551 418.635 18.7054C418.556 20.0557 418.489 21.3133 418.437 22.4782C418.41 23.6166 418.384 24.6095 418.357 25.4567C418.357 26.2775 418.357 26.8467 418.357 27.1644ZM408.349 51.6279C409.858 51.6279 411.248 51.3367 412.519 50.7542C413.817 50.1718 414.995 49.404 416.054 48.4508C415.551 47.4712 415.114 46.4255 414.743 45.3135C414.399 44.175 414.095 43.0366 413.83 41.8981C413.591 40.7332 413.393 39.5683 413.234 38.4033C413.102 37.2384 412.996 36.1132 412.916 35.0277C412.599 34.6835 412.202 34.4055 411.725 34.1937C411.248 33.9554 410.666 33.8363 409.978 33.8363C408.733 33.8363 407.621 34.1804 406.642 34.8688C405.688 35.5307 404.881 36.3779 404.219 37.4105C403.557 38.4166 403.054 39.5285 402.71 40.7464C402.366 41.9378 402.194 43.0763 402.194 44.1618C402.194 45.1679 402.3 46.1342 402.511 47.0609C402.75 47.961 403.12 48.7553 403.623 49.4437C404.126 50.1056 404.762 50.6351 405.53 51.0322C406.324 51.4294 407.264 51.6279 408.349 51.6279ZM457.634 66.9971C457.634 68.5062 457.488 70.0153 457.197 71.5244C456.906 73.0335 456.469 74.4897 455.886 75.8929C455.33 77.3226 454.629 78.6464 453.782 79.8643C452.934 81.1086 451.968 82.1809 450.882 83.0811C449.797 83.9812 448.579 84.6961 447.229 85.2256C445.905 85.7551 444.462 86.0199 442.9 86.0199C441.444 86.0199 440.067 85.7286 438.77 85.1462C437.473 84.5637 436.334 83.7827 435.355 82.8031C434.401 81.8235 433.647 80.6718 433.091 79.348C432.535 78.0507 432.257 76.6739 432.257 75.2178C432.257 73.6292 432.575 72.1069 433.21 70.6507C433.872 69.1946 434.732 67.8575 435.791 66.6396C436.85 65.4218 438.042 64.3495 439.366 63.4229C440.716 62.4962 442.093 61.7681 443.496 61.2386L443.734 61.7152C441.166 63.1184 439.18 65.0114 437.777 67.3942C436.374 69.777 435.672 72.4378 435.672 75.3766C435.672 76.568 435.831 77.7065 436.149 78.792C436.493 79.904 436.996 80.8836 437.658 81.7308C438.32 82.578 439.141 83.2531 440.12 83.7562C441.126 84.2857 442.278 84.5505 443.575 84.5505C445.376 84.5505 446.871 84.0607 448.063 83.0811C449.254 82.1015 450.207 80.8703 450.922 79.3877C451.637 77.9315 452.14 76.343 452.431 74.6221C452.749 72.9012 452.908 71.2861 452.908 69.777C452.908 68.162 452.776 66.5735 452.511 65.0114C452.272 63.4493 451.968 61.8873 451.597 60.3252C451.253 58.7631 450.896 57.2011 450.525 55.639C450.154 54.0769 449.85 52.5016 449.612 50.9131C449.056 51.575 448.46 52.2104 447.825 52.8193C447.189 53.4018 446.501 53.9181 445.759 54.3682C445.045 54.7918 444.277 55.1227 443.456 55.361C442.635 55.6258 441.775 55.7581 440.875 55.7581C439.524 55.7581 438.333 55.5066 437.3 55.0036C436.294 54.527 435.447 53.8651 434.759 53.0179C434.07 52.1707 433.541 51.1911 433.17 50.0791C432.826 48.9671 432.654 47.7757 432.654 46.5049C432.654 45.0752 432.853 43.672 433.25 42.2952C433.647 40.9185 434.203 39.6212 434.918 38.4033C435.632 37.1854 436.48 36.047 437.459 34.988C438.439 33.9289 439.498 33.0023 440.636 32.208L441.113 32.4463C439.975 34.0878 439.074 35.8617 438.412 37.7679C437.777 39.6477 437.459 41.5804 437.459 43.5661C437.459 44.4133 437.552 45.3267 437.737 46.3063C437.923 47.2859 438.214 48.1861 438.611 49.0068C439.035 49.8276 439.591 50.516 440.279 51.0719C440.994 51.6015 441.868 51.8662 442.9 51.8662C444.144 51.8662 445.309 51.6015 446.395 51.0719C447.48 50.516 448.473 49.8143 449.373 48.9671C449.294 47.9875 449.254 47.0079 449.254 46.0283C449.254 44.6781 449.347 43.2748 449.532 41.8187C449.718 40.3625 450.049 38.9725 450.525 37.6488C451.028 36.2985 451.703 35.0806 452.55 33.9951C453.398 32.8831 454.496 31.983 455.847 31.2946L456.164 31.4534C455.529 32.1153 454.999 32.8567 454.576 33.6774C454.152 34.4717 453.808 35.3057 453.543 36.1794C453.305 37.0531 453.133 37.9532 453.027 38.8799C452.948 39.7801 452.908 40.667 452.908 41.5407C452.908 43.9765 453.146 46.2401 453.623 48.3317C454.126 50.4233 454.669 52.4752 455.251 54.4873C455.86 56.4995 456.403 58.5116 456.879 60.5238C457.382 62.5624 457.634 64.7202 457.634 66.9971Z" fill="white"/>
</svg>
