<svg width="310" height="59" viewBox="0 0 310 59" fill="none" xmlns="http://www.w3.org/2000/svg">
<path d="M12.8374 7.57275C12.8374 7.75179 12.8105 7.91292 12.7568 8.05615C12.721 8.18148 12.6763 8.31576 12.6226 8.45898C12.3182 9.17513 11.9959 9.88232 11.6558 10.5806C11.3156 11.2609 11.047 11.986 10.8501 12.7559C10.1877 15.4414 9.68636 18.1538 9.34619 20.8931C9.02393 23.6323 8.80908 26.3895 8.70166 29.1646C9.8654 29.4152 10.9038 29.827 11.8169 30.3999C12.7479 30.9728 13.652 31.6532 14.5293 32.4409C16.2301 31.7248 17.7699 30.8296 19.1484 29.7554C20.5449 28.6812 21.7355 27.4458 22.7202 26.0493C23.7049 24.6528 24.4658 23.1042 25.0029 21.4033C25.54 19.7025 25.8086 17.8853 25.8086 15.9517C25.8086 14.8774 25.6475 13.7853 25.3252 12.6753C25.0208 11.5474 24.5822 10.4552 24.0093 9.39893C23.4543 8.34261 22.7829 7.34896 21.9951 6.41797C21.2253 5.48698 20.3659 4.68132 19.417 4.00098C18.4681 3.30273 17.4476 2.75667 16.3555 2.36279C15.2812 1.95101 14.1623 1.74512 12.9985 1.74512C11.8885 1.74512 10.7337 1.95101 9.53418 2.36279C8.35254 2.77458 7.26937 3.35645 6.28467 4.1084C5.29997 4.84245 4.4943 5.72868 3.86768 6.76709C3.24105 7.8055 2.92773 8.94238 2.92773 10.1777C2.92773 10.6611 2.98145 11.0998 3.08887 11.4937C3.21419 11.8696 3.33952 12.2188 3.46484 12.541C3.60807 12.8633 3.7334 13.1676 3.84082 13.4541C3.96615 13.7227 4.02881 14.0002 4.02881 14.2866C4.02881 14.8058 3.84977 15.2445 3.4917 15.6025C3.15153 15.9427 2.73079 16.1128 2.22949 16.1128C1.764 16.1128 1.39697 15.9875 1.12842 15.7368C0.859863 15.4862 0.64502 15.1729 0.483887 14.7969C0.340658 14.4209 0.242188 14.027 0.188477 13.6152C0.152669 13.1855 0.134766 12.8096 0.134766 12.4873C0.134766 10.9118 0.510742 9.48844 1.2627 8.21729C2.01465 6.94613 2.98145 5.80029 4.16309 4.77979C4.91504 4.13525 5.66699 3.57129 6.41895 3.08789C7.1888 2.60449 7.97656 2.19271 8.78223 1.85254C9.60579 1.51237 10.4562 1.26172 11.3335 1.10059C12.2108 0.921549 13.1507 0.832031 14.1533 0.832031C15.5856 0.832031 16.9642 1.01107 18.2891 1.36914C19.6318 1.72721 20.8851 2.23747 22.0488 2.8999C23.2305 3.56234 24.3047 4.35905 25.2715 5.29004C26.2562 6.22103 27.0977 7.25944 27.7959 8.40527C28.4941 9.55111 29.0312 10.7954 29.4072 12.1382C29.8011 13.4631 29.998 14.8595 29.998 16.3276C29.998 18.494 29.6042 20.4902 28.8164 22.3164C28.0465 24.1426 26.9992 25.7808 25.6743 27.231C24.3494 28.6632 22.8097 29.9076 21.0552 30.9639C19.3006 32.0023 17.4565 32.8169 15.5229 33.4077C15.7199 33.6047 15.9079 33.7926 16.0869 33.9717C16.2839 34.1507 16.4808 34.3387 16.6777 34.5356C17.752 35.592 18.8172 36.7109 19.8735 37.8926C20.9478 39.0742 22.0488 40.2469 23.1768 41.4106C24.3047 42.5744 25.4684 43.6844 26.668 44.7407C27.8675 45.8149 29.1387 46.7549 30.4814 47.5605C31.8242 48.3841 33.2476 49.0376 34.7515 49.521C36.2733 50.0044 37.9025 50.2461 39.6392 50.2461C39.9435 50.2461 40.23 50.2282 40.4985 50.1924C40.785 50.1745 41.0804 50.1208 41.3848 50.0312L41.519 50.5684C40.7313 50.9801 39.8988 51.2756 39.0215 51.4546C38.1442 51.6336 37.249 51.7231 36.3359 51.7231C34.4382 51.7231 32.7104 51.5262 31.1528 51.1323C29.5952 50.7563 28.154 50.2192 26.8291 49.521C25.5042 48.8228 24.2778 47.9813 23.1499 46.9966C22.022 46.0298 20.9388 44.9645 19.9004 43.8008C18.862 42.637 17.8415 41.3927 16.8389 40.0679C15.8542 38.7609 14.8337 37.4092 13.7773 36.0127C13.5446 35.7083 13.3118 35.404 13.0791 35.0996C12.8643 34.7773 12.6494 34.464 12.4346 34.1597C11.79 34.2671 11.1455 34.3566 10.501 34.4282C9.87435 34.4819 9.24772 34.5177 8.62109 34.5356C8.62109 36.7199 8.6748 38.8773 8.78223 41.0078C8.88965 43.1383 9.01497 45.2331 9.1582 47.292L8.64795 47.4531C7.9139 45.5553 7.34993 43.4785 6.95605 41.2227C6.58008 38.9668 6.29362 36.693 6.09668 34.4014C5.63118 34.3298 5.17464 34.2313 4.72705 34.106C4.27946 33.9806 3.86768 33.8105 3.4917 33.5957C3.13363 33.363 2.83822 33.0854 2.60547 32.7632C2.39062 32.423 2.2832 32.0202 2.2832 31.5547C2.2832 31.125 2.39062 30.758 2.60547 30.4536C2.82031 30.1313 3.09782 29.8717 3.43799 29.6748C3.79606 29.46 4.18099 29.2988 4.59277 29.1914C5.00456 29.0661 5.41634 28.9855 5.82812 28.9497C5.81022 28.4484 5.80127 27.9561 5.80127 27.4727C5.80127 26.9714 5.80127 26.488 5.80127 26.0225C5.80127 25.2884 5.80127 24.3753 5.80127 23.2832C5.81917 22.1911 5.86393 21.0273 5.93555 19.792C6.02507 18.5566 6.15934 17.3034 6.33838 16.0322C6.51742 14.7432 6.75911 13.5347 7.06348 12.4067C7.38574 11.2788 7.78857 10.2762 8.27197 9.39893C8.77327 8.52165 9.382 7.87712 10.0981 7.46533C10.3667 7.3042 10.6621 7.16097 10.9844 7.03564C11.3066 6.89242 11.6468 6.8208 12.0049 6.8208C12.5599 6.8208 12.8374 7.07145 12.8374 7.57275ZM3.22314 31.6621C3.22314 31.9128 3.30371 32.1366 3.46484 32.3335C3.62598 32.5304 3.84082 32.7095 4.10938 32.8706C4.37793 33.0138 4.67334 33.1392 4.99561 33.2466C5.33577 33.354 5.6849 33.4435 6.04297 33.5151C6.00716 32.9064 5.97135 32.3066 5.93555 31.7158C5.91764 31.1071 5.89079 30.5073 5.85498 29.9165C5.55062 29.9165 5.2373 29.9344 4.91504 29.9702C4.61068 30.006 4.33317 30.0866 4.08252 30.2119C3.83187 30.3372 3.62598 30.5163 3.46484 30.749C3.30371 30.9639 3.22314 31.2682 3.22314 31.6621ZM8.62109 33.7568C9.17611 33.7568 9.72217 33.721 10.2593 33.6494C10.7964 33.5778 11.3245 33.4793 11.8438 33.354C11.3962 32.7453 10.9128 32.1903 10.3936 31.689C9.89225 31.1698 9.31038 30.758 8.64795 30.4536C8.63005 31.0086 8.62109 31.5636 8.62109 32.1187C8.62109 32.6558 8.62109 33.2018 8.62109 33.7568ZM46.2993 30.0776C46.2993 31.3309 46.0934 32.4946 45.6816 33.5688C45.2699 34.6431 44.688 35.5741 43.936 36.3618C43.1841 37.1496 42.2799 37.7673 41.2236 38.2148C40.1852 38.6624 39.0304 38.8862 37.7593 38.8862C36.6313 38.8862 35.6108 38.6714 34.6978 38.2417C33.8026 37.8299 33.0327 37.266 32.3882 36.5498C31.7437 35.8337 31.2513 35.0011 30.9111 34.0522C30.571 33.0854 30.4009 32.056 30.4009 30.9639C30.4009 30.0508 30.5262 29.1825 30.7769 28.3589C31.0454 27.5353 31.4124 26.7744 31.8779 26.0762C32.3434 25.36 32.8984 24.7065 33.543 24.1157C34.1875 23.507 34.8857 22.9609 35.6377 22.4775L35.96 22.7192C35.208 23.5965 34.6172 24.5633 34.1875 25.6196C33.7578 26.6759 33.543 27.7949 33.543 28.9766C33.543 29.8359 33.6683 30.7132 33.9189 31.6084C34.1875 32.4857 34.5724 33.2913 35.0737 34.0254C35.575 34.7594 36.2017 35.3592 36.9536 35.8247C37.7056 36.2902 38.5649 36.5229 39.5317 36.5229C40.1405 36.5229 40.7134 36.3976 41.2505 36.147C41.7876 35.8963 42.2531 35.5562 42.647 35.1265C43.0588 34.6968 43.381 34.2134 43.6138 33.6763C43.8644 33.1213 43.9897 32.5483 43.9897 31.9575C43.9897 31.3846 43.9002 30.8296 43.7212 30.2925C43.5601 29.7375 43.3273 29.2272 43.0229 28.7617C42.7186 28.2783 42.3516 27.8486 41.9219 27.4727C41.4922 27.0788 41.0267 26.7565 40.5254 26.5059C40.2389 26.3626 39.9614 26.2552 39.6929 26.1836C39.4422 26.112 39.1647 26.0314 38.8604 25.9419C38.735 25.924 38.6007 25.8971 38.4575 25.8613C38.3143 25.8076 38.18 25.7539 38.0547 25.7002C37.9294 25.6286 37.8219 25.5391 37.7324 25.4316C37.6429 25.3242 37.5981 25.1899 37.5981 25.0288C37.5981 24.7065 37.7145 24.4111 37.9473 24.1426C38.18 23.874 38.4575 23.6413 38.7798 23.4443C39.1021 23.2295 39.4422 23.0684 39.8003 22.9609C40.1584 22.8356 40.4717 22.7729 40.7402 22.7729C41.6533 22.7729 42.459 23.0057 43.1572 23.4712C43.8555 23.9367 44.4373 24.5275 44.9028 25.2437C45.3683 25.9598 45.7174 26.7476 45.9502 27.6069C46.1829 28.4663 46.2993 29.2899 46.2993 30.0776ZM80.3789 34.1597C80.0566 34.8042 79.6717 35.4308 79.2241 36.0396C78.7765 36.6304 78.2752 37.1585 77.7202 37.624C77.1652 38.0895 76.5475 38.4565 75.8672 38.7251C75.2048 39.0116 74.4797 39.1548 73.6919 39.1548C72.5819 39.1548 71.6777 38.7788 70.9795 38.0269C70.2812 37.2749 69.7083 36.2992 69.2607 35.0996C68.8311 33.8822 68.4909 32.5125 68.2402 30.9907C67.9896 29.451 67.7747 27.9023 67.5957 26.3447C67.1839 27.0788 66.799 27.8486 66.4409 28.6543C66.1007 29.4421 65.7695 30.2746 65.4473 31.1519C65.125 32.0291 64.8027 32.9333 64.4805 33.8643C64.1582 34.7952 63.8091 35.7531 63.4331 36.7378C63.3436 36.9526 63.2451 37.1943 63.1377 37.4629C63.0303 37.7135 62.887 37.9552 62.708 38.188C62.5469 38.4386 62.3499 38.6445 62.1172 38.8057C61.8844 38.9668 61.6069 39.0474 61.2847 39.0474C61.0519 39.0474 60.846 38.9937 60.667 38.8862C60.488 38.7788 60.3268 38.6445 60.1836 38.4834C60.0583 38.3402 59.9419 38.179 59.8345 38C59.745 37.8031 59.6644 37.624 59.5928 37.4629C59.2347 36.6572 58.9482 35.8337 58.7334 34.9922C58.5186 34.1507 58.3306 33.2824 58.1694 32.3872C58.0262 31.492 57.9009 30.5431 57.7935 29.5405C57.686 28.5379 57.5786 27.4727 57.4712 26.3447C57.0952 27.222 56.755 28.0635 56.4507 28.8691C56.1642 29.6569 55.8778 30.4536 55.5913 31.2593C55.3228 32.047 55.0452 32.8706 54.7588 33.73C54.4902 34.5715 54.2038 35.4845 53.8994 36.4692C53.8278 36.702 53.7472 36.9526 53.6577 37.2212C53.5861 37.4718 53.4876 37.7046 53.3623 37.9194C53.2549 38.1343 53.1027 38.3133 52.9058 38.4565C52.7267 38.5998 52.494 38.6714 52.2075 38.6714C51.742 38.6714 51.4019 38.5192 51.187 38.2148C50.9722 37.9284 50.7931 37.5882 50.6499 37.1943C50.4351 36.6572 50.2292 35.9142 50.0322 34.9653C49.8353 33.9985 49.6562 32.9512 49.4951 31.8232C49.334 30.6953 49.2087 29.5316 49.1191 28.332C49.0296 27.1325 48.9849 26.0135 48.9849 24.9751C48.9849 23.9725 49.2534 23.2384 49.7905 22.7729C50.3276 22.2896 51.0348 22.0479 51.9121 22.0479C51.9658 22.0479 52.0464 22.0479 52.1538 22.0479C52.2612 22.0479 52.3687 22.0658 52.4761 22.1016C52.5835 22.1195 52.673 22.1553 52.7446 22.209C52.8341 22.2627 52.87 22.3343 52.8521 22.4238C52.6909 23.6771 52.5835 24.8677 52.5298 25.9956C52.4761 27.1235 52.4582 28.2246 52.4761 29.2988C52.494 30.3551 52.5477 31.4025 52.6372 32.4409C52.7446 33.4614 52.8789 34.5088 53.04 35.583C53.3444 34.5625 53.6398 33.5868 53.9263 32.6558C54.2306 31.7248 54.5439 30.8027 54.8662 29.8896C55.1885 28.9766 55.5286 28.0545 55.8867 27.1235C56.2627 26.1746 56.6655 25.181 57.0952 24.1426C57.328 23.6055 57.5697 23.2295 57.8203 23.0146C58.0889 22.7998 58.429 22.6924 58.8408 22.6924C59.36 22.6924 59.7629 22.8893 60.0493 23.2832C60.3537 23.6771 60.5506 24.1247 60.6401 24.626C60.7834 25.5391 60.9087 26.479 61.0161 27.4458C61.1235 28.3947 61.2399 29.3525 61.3652 30.3193C61.4906 31.2861 61.6427 32.244 61.8218 33.1929C62.0008 34.1239 62.2336 35.028 62.52 35.9053C62.8781 34.9743 63.2362 34.0075 63.5942 33.0049C63.9523 31.9844 64.3193 30.9639 64.6953 29.9434C65.0713 28.9229 65.4652 27.9202 65.877 26.9355C66.3066 25.9508 66.7632 25.0199 67.2466 24.1426C67.4793 23.7308 67.7389 23.3906 68.0254 23.1221C68.3298 22.8356 68.7057 22.6924 69.1533 22.6924C69.404 22.6924 69.6278 22.755 69.8247 22.8804C70.0216 22.9878 70.1917 23.14 70.335 23.3369C70.4782 23.516 70.5946 23.7218 70.6841 23.9546C70.7736 24.1694 70.8363 24.3932 70.8721 24.626C70.9616 25.1452 71.0422 25.8166 71.1138 26.6401C71.2033 27.4637 71.3107 28.341 71.436 29.272C71.5793 30.203 71.7493 31.1429 71.9463 32.0918C72.1432 33.0228 72.3939 33.8732 72.6982 34.6431C73.0026 35.395 73.3696 36.0127 73.7993 36.4961C74.229 36.9795 74.7482 37.2212 75.3569 37.2212C75.8582 37.2212 76.3416 37.1317 76.8071 36.9526C77.2726 36.7557 77.7113 36.514 78.123 36.2275C78.5348 35.9232 78.9108 35.583 79.251 35.207C79.609 34.8132 79.9313 34.4282 80.2178 34.0522L80.3789 34.1597ZM91.9805 23.9277C91.9805 24.1247 91.9089 24.3037 91.7656 24.4648C91.6224 24.6081 91.4523 24.6797 91.2554 24.6797C91.0942 24.6797 90.9242 24.6349 90.7451 24.5454C90.5661 24.438 90.3602 24.3216 90.1274 24.1963C89.9126 24.071 89.653 23.9635 89.3486 23.874C89.0622 23.7666 88.731 23.7129 88.355 23.7129C87.4777 23.7129 86.6899 23.9904 85.9917 24.5454C85.3114 25.0825 84.7295 25.7539 84.2461 26.5596C83.7806 27.3652 83.4225 28.2246 83.1719 29.1377C82.9212 30.0508 82.7959 30.8743 82.7959 31.6084C82.7959 32.1276 82.8407 32.6379 82.9302 33.1392C83.0197 33.6226 83.1719 34.0701 83.3867 34.4819C83.6195 34.8758 83.9328 35.1981 84.3267 35.4487C84.7205 35.6815 85.2218 35.7979 85.8306 35.7979C86.4751 35.7979 87.0928 35.6815 87.6836 35.4487C88.2744 35.1981 88.8294 34.8758 89.3486 34.4819C89.3665 33.909 89.4561 33.3092 89.6172 32.6826C89.7962 32.0381 90.02 31.4115 90.2886 30.8027C90.5571 30.1761 90.8615 29.5853 91.2017 29.0303C91.5597 28.4753 91.9268 27.9829 92.3027 27.5532L92.6519 27.7681C92.4549 28.3768 92.3117 29.0034 92.2222 29.6479C92.1326 30.2925 92.0879 30.9281 92.0879 31.5547C92.0879 32.1992 92.1416 32.8079 92.249 33.3809C92.3564 33.9538 92.5444 34.4551 92.813 34.8848C93.0815 35.2965 93.4486 35.6278 93.9141 35.8784C94.3796 36.1112 94.9793 36.2275 95.7134 36.2275C96.6086 36.2275 97.4321 36.0216 98.1841 35.6099C98.936 35.1981 99.5985 34.6789 100.171 34.0522L100.386 34.1597C100.064 34.7863 99.6432 35.3861 99.124 35.959C98.6048 36.5319 98.0229 37.0511 97.3784 37.5166C96.7518 37.9642 96.0804 38.3223 95.3643 38.5908C94.6481 38.8594 93.9409 38.9937 93.2427 38.9937C92.258 38.9937 91.4523 38.7072 90.8257 38.1343C90.1991 37.5793 89.7694 36.8721 89.5366 36.0127C88.7847 36.7646 87.9432 37.4002 87.0122 37.9194C86.0991 38.4207 85.1323 38.6714 84.1118 38.6714C83.3599 38.6714 82.6885 38.5282 82.0977 38.2417C81.5247 37.9731 81.0413 37.6061 80.6475 37.1406C80.2536 36.6751 79.9492 36.1291 79.7344 35.5024C79.5374 34.8579 79.439 34.1865 79.439 33.4883C79.439 32.6826 79.5643 31.859 79.8149 31.0176C80.0835 30.1582 80.4416 29.3167 80.8892 28.4932C81.3547 27.6696 81.9007 26.8908 82.5273 26.1567C83.154 25.4227 83.8343 24.7782 84.5684 24.2231C85.3203 23.6681 86.1081 23.2295 86.9316 22.9072C87.7552 22.585 88.5967 22.4238 89.4561 22.4238C89.653 22.4238 89.8947 22.4507 90.1812 22.5044C90.4676 22.5402 90.7451 22.6118 91.0137 22.7192C91.2822 22.8267 91.506 22.9788 91.6851 23.1758C91.882 23.3727 91.9805 23.6234 91.9805 23.9277ZM122.3 34.1597C121.96 34.8042 121.593 35.4219 121.199 36.0127C120.823 36.6035 120.394 37.1227 119.91 37.5703C119.427 38.0179 118.881 38.376 118.272 38.6445C117.663 38.9131 116.965 39.0474 116.177 39.0474C115.282 39.0474 114.512 38.8236 113.868 38.376C113.223 37.9463 112.668 37.3734 112.203 36.6572C111.755 35.9232 111.388 35.0907 111.102 34.1597C110.833 33.2287 110.609 32.2798 110.43 31.313C110.251 30.3462 110.117 29.3973 110.027 28.4663C109.938 27.5174 109.857 26.667 109.786 25.915C109.445 26.1836 109.034 26.7028 108.55 27.4727C108.067 28.2246 107.575 29.1108 107.073 30.1313C106.572 31.1519 106.089 32.2619 105.623 33.4614C105.175 34.661 104.808 35.8426 104.522 37.0063C104.468 37.257 104.379 37.5166 104.253 37.7852C104.146 38.0537 104.003 38.2954 103.824 38.5103C103.663 38.743 103.466 38.931 103.233 39.0742C103 39.2354 102.741 39.3159 102.454 39.3159C101.989 39.3159 101.648 39.1548 101.434 38.8325C101.237 38.5103 101.093 38.1432 101.004 37.7314C100.485 35.4577 100.118 33.2824 99.9028 31.2056C99.7059 29.1287 99.6074 27.0519 99.6074 24.9751C99.6074 24.4738 99.688 24.0441 99.8491 23.686C100.028 23.3101 100.261 23.0057 100.547 22.7729C100.834 22.5223 101.174 22.3433 101.568 22.2358C101.962 22.1105 102.374 22.0479 102.803 22.0479C102.857 22.0479 102.938 22.0479 103.045 22.0479C103.17 22.0479 103.287 22.0658 103.394 22.1016C103.501 22.1195 103.591 22.1553 103.663 22.209C103.734 22.2627 103.761 22.3343 103.743 22.4238C103.278 24.7692 103.054 27.1593 103.072 29.5942C103.09 32.0112 103.215 34.3387 103.448 36.5767C103.645 35.6815 103.931 34.6699 104.307 33.542C104.701 32.3962 105.149 31.2503 105.65 30.1045C106.169 28.9408 106.724 27.8397 107.315 26.8013C107.924 25.745 108.541 24.8587 109.168 24.1426C109.472 23.8024 109.777 23.516 110.081 23.2832C110.403 23.0326 110.797 22.9072 111.263 22.9072C111.531 22.9072 111.755 22.9609 111.934 23.0684C112.113 23.1758 112.256 23.3101 112.364 23.4712C112.489 23.6323 112.579 23.8203 112.632 24.0352C112.704 24.2321 112.758 24.429 112.793 24.626C112.883 25.1452 112.972 25.8166 113.062 26.6401C113.152 27.4637 113.259 28.341 113.384 29.272C113.528 30.203 113.698 31.1429 113.895 32.0918C114.091 33.0228 114.342 33.8732 114.646 34.6431C114.951 35.395 115.318 36.0127 115.748 36.4961C116.177 36.9795 116.688 37.2212 117.278 37.2212C117.762 37.2212 118.227 37.1317 118.675 36.9526C119.14 36.7557 119.579 36.514 119.991 36.2275C120.403 35.9232 120.787 35.583 121.146 35.207C121.504 34.8132 121.826 34.4282 122.112 34.0522L122.3 34.1597ZM138.226 34.1597C137.832 34.8221 137.366 35.4398 136.829 36.0127C136.31 36.5856 135.728 37.0869 135.083 37.5166C134.457 37.9463 133.777 38.2775 133.042 38.5103C132.308 38.7609 131.548 38.8862 130.76 38.8862C129.596 38.8862 128.567 38.6893 127.671 38.2954C126.794 37.9015 126.033 37.3734 125.389 36.7109C124.744 36.0306 124.207 35.2428 123.777 34.3477C123.348 33.4525 123.007 32.5215 122.757 31.5547C122.506 30.57 122.327 29.5674 122.22 28.5469C122.112 27.5264 122.059 26.5506 122.059 25.6196C122.059 24.7603 122.094 23.883 122.166 22.9878C122.238 22.0747 122.345 21.1437 122.488 20.1948C121.933 20.2127 121.387 20.2217 120.85 20.2217C120.331 20.2217 119.812 20.2217 119.292 20.2217C118.952 20.2217 118.567 20.2127 118.138 20.1948C117.708 20.1769 117.305 20.1053 116.929 19.98C116.553 19.8547 116.24 19.6667 115.989 19.416C115.739 19.1654 115.613 18.7983 115.613 18.3149C115.613 18.0464 115.667 17.8315 115.774 17.6704C115.864 17.5093 115.998 17.3929 116.177 17.3213C116.338 17.2318 116.535 17.1781 116.768 17.1602C116.983 17.1243 117.207 17.1064 117.439 17.1064C117.708 17.1064 118.344 17.1512 119.346 17.2407C120.349 17.3302 121.557 17.4287 122.972 17.5361C123.419 15.4235 123.992 13.3467 124.69 11.3057C125.407 9.26465 126.212 7.40267 127.107 5.71973H127.483C126.91 7.67122 126.4 9.64062 125.953 11.6279C125.523 13.6152 125.201 15.6294 124.986 17.6704C126.293 17.7599 127.636 17.8405 129.014 17.9121C130.411 17.9658 131.771 17.9927 133.096 17.9927C135.048 17.9927 136.632 17.9748 137.85 17.939C139.067 17.9032 140.025 17.8584 140.723 17.8047C141.547 17.7331 142.164 17.6615 142.576 17.5898L142.684 18.0464C141.609 18.297 140.383 18.5387 139.004 18.7715C137.626 18.9863 136.158 19.1833 134.6 19.3623C133.042 19.5234 131.431 19.6667 129.766 19.792C128.101 19.9173 126.445 20.0158 124.798 20.0874C124.762 20.4455 124.744 20.8125 124.744 21.1885C124.744 21.5465 124.744 21.9046 124.744 22.2627C124.744 23.1221 124.78 24.071 124.852 25.1094C124.941 26.1478 125.093 27.1951 125.308 28.2515C125.523 29.2899 125.809 30.3104 126.167 31.313C126.543 32.2977 127.027 33.175 127.618 33.9448C128.226 34.6968 128.951 35.3055 129.793 35.771C130.634 36.2365 131.628 36.4692 132.774 36.4692C133.83 36.4692 134.779 36.2365 135.621 35.771C136.48 35.3055 137.295 34.7326 138.064 34.0522L138.226 34.1597ZM143.06 16.3276C143.06 16.6857 142.979 17.0438 142.818 17.4019C142.657 17.7599 142.442 18.0822 142.173 18.3687C141.923 18.6372 141.627 18.861 141.287 19.04C140.947 19.2191 140.598 19.3086 140.24 19.3086C139.774 19.3086 139.398 19.1564 139.112 18.8521C138.843 18.5477 138.709 18.1628 138.709 17.6973C138.709 17.3392 138.79 16.9901 138.951 16.6499C139.112 16.2918 139.318 15.9785 139.568 15.71C139.837 15.4414 140.132 15.2266 140.455 15.0654C140.795 14.8864 141.144 14.7969 141.502 14.7969C141.967 14.7969 142.343 14.9401 142.63 15.2266C142.916 15.513 143.06 15.88 143.06 16.3276ZM150.579 34.1597C150.167 34.84 149.675 35.4666 149.102 36.0396C148.547 36.5946 147.929 37.0869 147.249 37.5166C146.587 37.9284 145.87 38.2507 145.101 38.4834C144.349 38.7161 143.57 38.8325 142.764 38.8325C141.762 38.8325 140.866 38.6624 140.079 38.3223C139.309 37.9821 138.655 37.5166 138.118 36.9258C137.599 36.3171 137.196 35.6099 136.91 34.8042C136.641 33.9806 136.507 33.0854 136.507 32.1187C136.507 31.0802 136.659 30.0955 136.963 29.1646C137.268 28.2336 137.688 27.3652 138.226 26.5596C138.763 25.736 139.389 24.984 140.105 24.3037C140.84 23.6234 141.618 23.0146 142.442 22.4775L142.764 22.7192C141.887 23.7576 141.171 24.9214 140.616 26.2104C140.079 27.4995 139.81 28.8423 139.81 30.2388C139.81 31.0444 139.9 31.8232 140.079 32.5752C140.276 33.3092 140.571 33.9627 140.965 34.5356C141.377 35.1086 141.896 35.5651 142.522 35.9053C143.149 36.2454 143.91 36.4155 144.805 36.4155C145.861 36.4155 146.864 36.1917 147.813 35.7441C148.78 35.2965 149.648 34.7326 150.418 34.0522L150.579 34.1597ZM166.209 34.1597C165.743 34.9295 165.135 35.6188 164.383 36.2275C163.649 36.8184 162.834 37.3286 161.939 37.7583C161.062 38.1701 160.14 38.4834 159.173 38.6982C158.224 38.931 157.311 39.0474 156.434 39.0474C155.359 39.0474 154.357 38.8862 153.426 38.564C152.513 38.2417 151.707 37.7762 151.009 37.1675C150.328 36.5409 149.791 35.7979 149.397 34.9385C149.021 34.0612 148.833 33.0675 148.833 31.9575C148.833 30.7043 149.057 29.4779 149.505 28.2783C149.97 27.0788 150.606 26.0135 151.412 25.0825C152.235 24.1515 153.202 23.4085 154.312 22.8535C155.44 22.2806 156.657 21.9941 157.964 21.9941C158.394 21.9941 158.824 22.0389 159.253 22.1284C159.683 22.2179 160.077 22.3701 160.435 22.585C160.793 22.7819 161.08 23.0505 161.294 23.3906C161.527 23.7308 161.644 24.1605 161.644 24.6797C161.644 25.1989 161.509 25.6554 161.241 26.0493C160.972 26.4253 160.632 26.7386 160.22 26.9893C159.808 27.2399 159.361 27.4458 158.877 27.6069C158.412 27.7502 157.964 27.8576 157.535 27.9292V27.5532C157.785 27.4816 158.054 27.3831 158.34 27.2578C158.645 27.1325 158.922 26.9714 159.173 26.7744C159.424 26.5775 159.629 26.3447 159.791 26.0762C159.97 25.8076 160.059 25.5122 160.059 25.1899C160.059 24.9393 159.996 24.7334 159.871 24.5723C159.764 24.3932 159.62 24.25 159.441 24.1426C159.28 24.0352 159.092 23.9546 158.877 23.9009C158.663 23.8472 158.448 23.8203 158.233 23.8203C157.32 23.8203 156.496 24.0262 155.762 24.438C155.046 24.8319 154.437 25.36 153.936 26.0225C153.435 26.6849 153.05 27.4279 152.781 28.2515C152.531 29.075 152.405 29.9076 152.405 30.749C152.405 31.7158 152.549 32.5841 152.835 33.354C153.139 34.106 153.56 34.7505 154.097 35.2876C154.634 35.8247 155.288 36.2365 156.058 36.5229C156.827 36.8094 157.687 36.9526 158.636 36.9526C159.244 36.9526 159.889 36.89 160.569 36.7646C161.268 36.6214 161.939 36.4245 162.583 36.1738C163.246 35.9232 163.873 35.6188 164.463 35.2607C165.054 34.9027 165.564 34.4998 165.994 34.0522L166.209 34.1597ZM207.298 9.56006C207.298 10.8491 207.056 12.0576 206.573 13.1855C206.089 14.3135 205.436 15.3519 204.612 16.3008C203.807 17.2318 202.867 18.0732 201.792 18.8252C200.718 19.5771 199.59 20.2127 198.409 20.7319C197.227 21.2332 196.019 21.6271 194.783 21.9136C193.566 22.1821 192.402 22.3164 191.292 22.3164H191.131V21.7793C192.742 21.5824 194.3 21.09 195.804 20.3022C197.326 19.4966 198.668 18.485 199.832 17.2676C201.014 16.0501 201.954 14.6715 202.652 13.1318C203.368 11.5921 203.726 9.98079 203.726 8.29785C203.726 7.38477 203.601 6.5612 203.35 5.82715C203.117 5.0752 202.759 4.43962 202.276 3.92041C201.81 3.3833 201.22 2.97152 200.503 2.68506C199.787 2.3986 198.955 2.25537 198.006 2.25537C196.09 2.25537 194.354 2.66715 192.796 3.49072C191.256 4.29639 189.887 5.37956 188.687 6.74023C187.487 8.08301 186.449 9.63167 185.572 11.3862C184.712 13.1408 183.996 14.967 183.423 16.8647C182.868 18.7625 182.457 20.6693 182.188 22.585C181.919 24.4827 181.785 26.2463 181.785 27.8755C181.785 29.1825 181.866 30.5073 182.027 31.8501C182.206 33.175 182.483 34.4551 182.859 35.6904C183.235 36.9258 183.719 38.0806 184.31 39.1548C184.9 40.2469 185.608 41.1958 186.431 42.0015C187.273 42.8071 188.239 43.4427 189.332 43.9082C190.424 44.3737 191.668 44.6064 193.064 44.6064C194.031 44.6064 194.962 44.4274 195.857 44.0693C196.753 43.7113 197.594 43.2368 198.382 42.646C199.17 42.0552 199.877 41.3838 200.503 40.6318C201.148 39.8799 201.694 39.11 202.142 38.3223L202.464 38.4834C202.16 39.5934 201.64 40.6855 200.906 41.7598C200.172 42.834 199.295 43.7829 198.274 44.6064C197.272 45.4479 196.171 46.1193 194.971 46.6206C193.79 47.1398 192.599 47.3994 191.399 47.3994C189.806 47.3994 188.365 47.1488 187.076 46.6475C185.787 46.1641 184.632 45.4837 183.611 44.6064C182.609 43.7471 181.74 42.7266 181.006 41.5449C180.272 40.3812 179.664 39.119 179.18 37.7583C178.697 36.3797 178.339 34.9474 178.106 33.4614C177.873 31.9575 177.757 30.4536 177.757 28.9497C177.757 26.9803 177.963 24.9214 178.375 22.7729C178.786 20.6245 179.395 18.5119 180.201 16.4351C181.006 14.3582 181.991 12.3888 183.155 10.5269C184.336 8.64697 185.688 6.99984 187.21 5.58545C188.732 4.15316 190.415 3.02523 192.259 2.20166C194.121 1.36019 196.126 0.939453 198.274 0.939453C199.617 0.939453 200.844 1.13639 201.954 1.53027C203.064 1.90625 204.013 2.46126 204.8 3.19531C205.606 3.92936 206.224 4.8335 206.653 5.90771C207.083 6.96403 207.298 8.18148 207.298 9.56006ZM220.376 30.0776C220.376 31.3309 220.171 32.4946 219.759 33.5688C219.347 34.6431 218.765 35.5741 218.013 36.3618C217.261 37.1496 216.357 37.7673 215.301 38.2148C214.262 38.6624 213.108 38.8862 211.836 38.8862C210.708 38.8862 209.688 38.6714 208.775 38.2417C207.88 37.8299 207.11 37.266 206.465 36.5498C205.821 35.8337 205.328 35.0011 204.988 34.0522C204.648 33.0854 204.478 32.056 204.478 30.9639C204.478 30.0508 204.603 29.1825 204.854 28.3589C205.123 27.5353 205.49 26.7744 205.955 26.0762C206.421 25.36 206.976 24.7065 207.62 24.1157C208.265 23.507 208.963 22.9609 209.715 22.4775L210.037 22.7192C209.285 23.5965 208.694 24.5633 208.265 25.6196C207.835 26.6759 207.62 27.7949 207.62 28.9766C207.62 29.8359 207.745 30.7132 207.996 31.6084C208.265 32.4857 208.65 33.2913 209.151 34.0254C209.652 34.7594 210.279 35.3592 211.031 35.8247C211.783 36.2902 212.642 36.5229 213.609 36.5229C214.218 36.5229 214.791 36.3976 215.328 36.147C215.865 35.8963 216.33 35.5562 216.724 35.1265C217.136 34.6968 217.458 34.2134 217.691 33.6763C217.942 33.1213 218.067 32.5483 218.067 31.9575C218.067 31.3846 217.977 30.8296 217.798 30.2925C217.637 29.7375 217.404 29.2272 217.1 28.7617C216.796 28.2783 216.429 27.8486 215.999 27.4727C215.569 27.0788 215.104 26.7565 214.603 26.5059C214.316 26.3626 214.039 26.2552 213.77 26.1836C213.519 26.112 213.242 26.0314 212.938 25.9419C212.812 25.924 212.678 25.8971 212.535 25.8613C212.391 25.8076 212.257 25.7539 212.132 25.7002C212.007 25.6286 211.899 25.5391 211.81 25.4316C211.72 25.3242 211.675 25.1899 211.675 25.0288C211.675 24.7065 211.792 24.4111 212.024 24.1426C212.257 23.874 212.535 23.6413 212.857 23.4443C213.179 23.2295 213.519 23.0684 213.877 22.9609C214.236 22.8356 214.549 22.7729 214.817 22.7729C215.73 22.7729 216.536 23.0057 217.234 23.4712C217.933 23.9367 218.514 24.5275 218.98 25.2437C219.445 25.9598 219.795 26.7476 220.027 27.6069C220.26 28.4663 220.376 29.2899 220.376 30.0776ZM254.456 34.1597C254.134 34.8042 253.749 35.4308 253.301 36.0396C252.854 36.6304 252.352 37.1585 251.797 37.624C251.242 38.0895 250.625 38.4565 249.944 38.7251C249.282 39.0116 248.557 39.1548 247.769 39.1548C246.659 39.1548 245.755 38.7788 245.057 38.0269C244.358 37.2749 243.785 36.2992 243.338 35.0996C242.908 33.8822 242.568 32.5125 242.317 30.9907C242.067 29.451 241.852 27.9023 241.673 26.3447C241.261 27.0788 240.876 27.8486 240.518 28.6543C240.178 29.4421 239.847 30.2746 239.524 31.1519C239.202 32.0291 238.88 32.9333 238.558 33.8643C238.235 34.7952 237.886 35.7531 237.51 36.7378C237.421 36.9526 237.322 37.1943 237.215 37.4629C237.107 37.7135 236.964 37.9552 236.785 38.188C236.624 38.4386 236.427 38.6445 236.194 38.8057C235.962 38.9668 235.684 39.0474 235.362 39.0474C235.129 39.0474 234.923 38.9937 234.744 38.8862C234.565 38.7788 234.404 38.6445 234.261 38.4834C234.135 38.3402 234.019 38.179 233.912 38C233.822 37.8031 233.742 37.624 233.67 37.4629C233.312 36.6572 233.025 35.8337 232.811 34.9922C232.596 34.1507 232.408 33.2824 232.247 32.3872C232.103 31.492 231.978 30.5431 231.871 29.5405C231.763 28.5379 231.656 27.4727 231.548 26.3447C231.172 27.222 230.832 28.0635 230.528 28.8691C230.241 29.6569 229.955 30.4536 229.668 31.2593C229.4 32.047 229.122 32.8706 228.836 33.73C228.567 34.5715 228.281 35.4845 227.977 36.4692C227.905 36.702 227.824 36.9526 227.735 37.2212C227.663 37.4718 227.565 37.7046 227.439 37.9194C227.332 38.1343 227.18 38.3133 226.983 38.4565C226.804 38.5998 226.571 38.6714 226.285 38.6714C225.819 38.6714 225.479 38.5192 225.264 38.2148C225.049 37.9284 224.87 37.5882 224.727 37.1943C224.512 36.6572 224.306 35.9142 224.109 34.9653C223.912 33.9985 223.733 32.9512 223.572 31.8232C223.411 30.6953 223.286 29.5316 223.196 28.332C223.107 27.1325 223.062 26.0135 223.062 24.9751C223.062 23.9725 223.331 23.2384 223.868 22.7729C224.405 22.2896 225.112 22.0479 225.989 22.0479C226.043 22.0479 226.124 22.0479 226.231 22.0479C226.338 22.0479 226.446 22.0658 226.553 22.1016C226.661 22.1195 226.75 22.1553 226.822 22.209C226.911 22.2627 226.947 22.3343 226.929 22.4238C226.768 23.6771 226.661 24.8677 226.607 25.9956C226.553 27.1235 226.535 28.2246 226.553 29.2988C226.571 30.3551 226.625 31.4025 226.714 32.4409C226.822 33.4614 226.956 34.5088 227.117 35.583C227.422 34.5625 227.717 33.5868 228.003 32.6558C228.308 31.7248 228.621 30.8027 228.943 29.8896C229.266 28.9766 229.606 28.0545 229.964 27.1235C230.34 26.1746 230.743 25.181 231.172 24.1426C231.405 23.6055 231.647 23.2295 231.897 23.0146C232.166 22.7998 232.506 22.6924 232.918 22.6924C233.437 22.6924 233.84 22.8893 234.126 23.2832C234.431 23.6771 234.628 24.1247 234.717 24.626C234.861 25.5391 234.986 26.479 235.093 27.4458C235.201 28.3947 235.317 29.3525 235.442 30.3193C235.568 31.2861 235.72 32.244 235.899 33.1929C236.078 34.1239 236.311 35.028 236.597 35.9053C236.955 34.9743 237.313 34.0075 237.671 33.0049C238.029 31.9844 238.396 30.9639 238.772 29.9434C239.148 28.9229 239.542 27.9202 239.954 26.9355C240.384 25.9508 240.84 25.0199 241.324 24.1426C241.556 23.7308 241.816 23.3906 242.103 23.1221C242.407 22.8356 242.783 22.6924 243.23 22.6924C243.481 22.6924 243.705 22.755 243.902 22.8804C244.099 22.9878 244.269 23.14 244.412 23.3369C244.555 23.516 244.672 23.7218 244.761 23.9546C244.851 24.1694 244.913 24.3932 244.949 24.626C245.039 25.1452 245.119 25.8166 245.191 26.6401C245.28 27.4637 245.388 28.341 245.513 29.272C245.656 30.203 245.826 31.1429 246.023 32.0918C246.22 33.0228 246.471 33.8732 246.775 34.6431C247.08 35.395 247.447 36.0127 247.876 36.4961C248.306 36.9795 248.825 37.2212 249.434 37.2212C249.935 37.2212 250.419 37.1317 250.884 36.9526C251.35 36.7557 251.788 36.514 252.2 36.2275C252.612 35.9232 252.988 35.583 253.328 35.207C253.686 34.8132 254.008 34.4282 254.295 34.0522L254.456 34.1597ZM270.516 34.1597C270.05 34.84 269.486 35.4756 268.824 36.0664C268.179 36.6572 267.463 37.1675 266.675 37.5972C265.905 38.0269 265.091 38.367 264.231 38.6177C263.39 38.8683 262.54 38.9937 261.68 38.9937C260.463 38.9937 259.326 38.8325 258.27 38.5103C257.213 38.2059 256.291 37.7314 255.503 37.0869C254.716 36.4424 254.098 35.6367 253.65 34.6699C253.203 33.6852 252.979 32.5394 252.979 31.2324C252.979 29.9434 253.212 28.7438 253.677 27.6338C254.161 26.5059 254.814 25.5301 255.638 24.7065C256.479 23.8651 257.464 23.2026 258.592 22.7192C259.72 22.2358 260.928 21.9941 262.217 21.9941C262.826 21.9941 263.39 22.0837 263.909 22.2627C264.446 22.4238 264.912 22.6745 265.306 23.0146C265.7 23.3369 266.004 23.7397 266.219 24.2231C266.451 24.7065 266.568 25.2616 266.568 25.8882C266.568 26.6401 266.416 27.3026 266.111 27.8755C265.807 28.4484 265.404 28.9497 264.903 29.3794C264.402 29.8091 263.829 30.1672 263.184 30.4536C262.557 30.7401 261.895 30.9728 261.197 31.1519C260.516 31.3309 259.836 31.4652 259.156 31.5547C258.493 31.6263 257.885 31.6621 257.33 31.6621H256.685C256.918 33.2913 257.562 34.5356 258.619 35.395C259.675 36.2544 261.134 36.6841 262.996 36.6841C264.321 36.6841 265.61 36.4513 266.863 35.9858C268.134 35.5203 269.28 34.8758 270.301 34.0522L270.516 34.1597ZM256.604 30.8564H257.276C257.92 30.8564 258.583 30.758 259.263 30.561C259.944 30.3462 260.552 30.0418 261.089 29.6479C261.644 29.2362 262.101 28.7349 262.459 28.144C262.817 27.5532 262.996 26.8818 262.996 26.1299C262.996 25.3958 262.835 24.7871 262.513 24.3037C262.208 23.8203 261.671 23.5786 260.901 23.5786C260.114 23.5786 259.442 23.8203 258.887 24.3037C258.35 24.7692 257.911 25.3511 257.571 26.0493C257.231 26.7297 256.98 27.4548 256.819 28.2246C256.676 28.9766 256.604 29.6479 256.604 30.2388V30.8564ZM294.041 34.1597C293.755 34.7505 293.396 35.2876 292.967 35.771C292.537 36.2365 292.054 36.6393 291.517 36.9795C290.979 37.3018 290.407 37.5524 289.798 37.7314C289.189 37.9105 288.554 38 287.891 38C286.495 38 285.304 37.6598 284.319 36.9795C283.353 36.2992 282.538 35.4129 281.875 34.3208C281.392 34.8579 280.855 35.395 280.264 35.9321C279.691 36.4513 279.074 36.9168 278.411 37.3286C277.767 37.7225 277.095 38.0448 276.397 38.2954C275.699 38.5461 275 38.6714 274.302 38.6714C273.461 38.6714 272.709 38.5013 272.046 38.1611C271.384 37.821 270.82 37.3734 270.354 36.8184C269.889 36.2454 269.531 35.6009 269.28 34.8848C269.03 34.1507 268.904 33.3898 268.904 32.6021C268.904 31.4204 269.164 30.2298 269.683 29.0303C270.22 27.8307 270.918 26.7476 271.778 25.7808C272.655 24.7961 273.658 23.9993 274.786 23.3906C275.914 22.7819 277.086 22.4775 278.304 22.4775C278.662 22.4775 278.975 22.5133 279.244 22.585V21.457C279.244 20.9378 279.262 20.2485 279.297 19.3892C279.333 18.5298 279.405 17.5809 279.512 16.5425C279.62 15.4862 279.754 14.3851 279.915 13.2393C280.094 12.0755 280.318 10.9297 280.586 9.80176C280.873 8.65592 281.204 7.57275 281.58 6.55225C281.956 5.51383 282.395 4.6097 282.896 3.83984C283.397 3.05208 283.97 2.42546 284.615 1.95996C285.259 1.49447 285.984 1.26172 286.79 1.26172C287.739 1.26172 288.509 1.53923 289.1 2.09424C289.69 2.64925 290.156 3.33854 290.496 4.16211C290.836 4.96777 291.06 5.82715 291.167 6.74023C291.293 7.65332 291.355 8.46794 291.355 9.18408C291.355 10.1151 291.266 11.1982 291.087 12.4336C290.908 13.651 290.657 14.9491 290.335 16.3276C290.013 17.6883 289.628 19.0848 289.18 20.5171C288.733 21.9494 288.249 23.328 287.73 24.6528C287.211 25.9777 286.647 27.2131 286.038 28.3589C285.447 29.4868 284.847 30.4447 284.239 31.2324C284.472 31.9307 284.749 32.5752 285.071 33.166C285.411 33.7568 285.805 34.2671 286.253 34.6968C286.701 35.1265 287.211 35.4666 287.784 35.7173C288.357 35.95 289.01 36.0664 289.744 36.0664C291.427 36.0664 292.806 35.395 293.88 34.0522L294.041 34.1597ZM283.03 19.2012C283.03 19.8457 283.03 20.5977 283.03 21.457C283.03 22.2985 283.048 23.1937 283.084 24.1426C283.138 25.0915 283.218 26.0672 283.326 27.0698C283.451 28.0545 283.63 29.0124 283.863 29.9434C284.615 28.4932 285.304 26.9087 285.931 25.1899C286.557 23.4533 287.094 21.6808 287.542 19.8726C288.007 18.0464 288.366 16.2292 288.616 14.4209C288.867 12.6126 288.992 10.9028 288.992 9.2915C288.992 8.95133 288.974 8.45898 288.938 7.81445C288.903 7.16992 288.804 6.53434 288.643 5.90771C288.482 5.26318 288.24 4.70817 287.918 4.24268C287.596 3.75928 287.157 3.51758 286.602 3.51758C286.172 3.51758 285.787 3.72347 285.447 4.13525C285.107 4.52913 284.812 5.06624 284.561 5.74658C284.31 6.40902 284.096 7.16992 283.917 8.0293C283.755 8.88867 283.612 9.78385 283.487 10.7148C283.379 11.6458 283.29 12.5679 283.218 13.481C283.165 14.394 283.12 15.2445 283.084 16.0322C283.066 16.8021 283.048 17.4735 283.03 18.0464C283.03 18.6014 283.03 18.9863 283.03 19.2012ZM276.263 35.7441C277.283 35.7441 278.223 35.5472 279.083 35.1533C279.96 34.7594 280.757 34.2402 281.473 33.5957C281.132 32.9333 280.837 32.2261 280.586 31.4741C280.354 30.7043 280.148 29.9344 279.969 29.1646C279.808 28.3768 279.673 27.589 279.566 26.8013C279.476 26.0135 279.405 25.2526 279.351 24.5186C279.136 24.2858 278.868 24.0978 278.545 23.9546C278.223 23.7935 277.829 23.7129 277.364 23.7129C276.522 23.7129 275.77 23.9456 275.108 24.4111C274.463 24.8587 273.917 25.4316 273.47 26.1299C273.022 26.8102 272.682 27.5622 272.449 28.3857C272.216 29.1914 272.1 29.9613 272.1 30.6953C272.1 31.3757 272.172 32.0291 272.315 32.6558C272.476 33.2645 272.727 33.8016 273.067 34.2671C273.407 34.7147 273.837 35.0728 274.356 35.3413C274.893 35.6099 275.529 35.7441 276.263 35.7441ZM309.59 46.1372C309.59 47.1577 309.492 48.1782 309.295 49.1987C309.098 50.2192 308.803 51.2039 308.409 52.1528C308.033 53.1196 307.558 54.0148 306.985 54.8384C306.412 55.6799 305.759 56.4049 305.025 57.0137C304.291 57.6224 303.467 58.1058 302.554 58.4639C301.659 58.8219 300.683 59.001 299.627 59.001C298.642 59.001 297.711 58.804 296.834 58.4102C295.957 58.0163 295.187 57.4881 294.524 56.8257C293.88 56.1632 293.37 55.3844 292.994 54.4893C292.618 53.612 292.43 52.681 292.43 51.6963C292.43 50.6221 292.645 49.5926 293.074 48.6079C293.522 47.6232 294.104 46.7191 294.82 45.8955C295.536 45.0719 296.342 44.3468 297.237 43.7202C298.15 43.0936 299.081 42.6012 300.03 42.2432L300.191 42.5654C298.454 43.5143 297.111 44.7944 296.163 46.4058C295.214 48.0171 294.739 49.8164 294.739 51.8037C294.739 52.6094 294.847 53.3792 295.062 54.1133C295.294 54.8652 295.634 55.5277 296.082 56.1006C296.53 56.6735 297.085 57.13 297.747 57.4702C298.427 57.8283 299.206 58.0073 300.083 58.0073C301.301 58.0073 302.312 57.6761 303.118 57.0137C303.924 56.3512 304.568 55.5187 305.052 54.5161C305.535 53.5314 305.875 52.4572 306.072 51.2935C306.287 50.1297 306.395 49.0376 306.395 48.0171C306.395 46.925 306.305 45.8507 306.126 44.7944C305.965 43.7381 305.759 42.6818 305.508 41.6255C305.276 40.5692 305.034 39.5129 304.783 38.4565C304.533 37.4002 304.327 36.335 304.166 35.2607C303.79 35.7083 303.387 36.138 302.957 36.5498C302.527 36.9437 302.062 37.2928 301.561 37.5972C301.077 37.8836 300.558 38.1074 300.003 38.2686C299.448 38.4476 298.866 38.5371 298.257 38.5371C297.344 38.5371 296.539 38.367 295.84 38.0269C295.16 37.7046 294.587 37.257 294.122 36.6841C293.656 36.1112 293.298 35.4487 293.047 34.6968C292.815 33.9448 292.698 33.1392 292.698 32.2798C292.698 31.313 292.833 30.3641 293.101 29.4331C293.37 28.5021 293.746 27.6248 294.229 26.8013C294.712 25.9777 295.285 25.2078 295.948 24.4917C296.61 23.7756 297.326 23.1489 298.096 22.6118L298.418 22.7729C297.649 23.883 297.04 25.0825 296.592 26.3716C296.163 27.6427 295.948 28.9497 295.948 30.2925C295.948 30.8654 296.01 31.4831 296.136 32.1455C296.261 32.8079 296.458 33.4167 296.727 33.9717C297.013 34.5267 297.389 34.9922 297.854 35.3682C298.338 35.7262 298.929 35.9053 299.627 35.9053C300.468 35.9053 301.256 35.7262 301.99 35.3682C302.724 34.9922 303.396 34.5177 304.004 33.9448C303.951 33.2824 303.924 32.62 303.924 31.9575C303.924 31.0444 303.986 30.0955 304.112 29.1108C304.237 28.1261 304.461 27.1862 304.783 26.291C305.123 25.3779 305.58 24.5544 306.153 23.8203C306.726 23.0684 307.469 22.4596 308.382 21.9941L308.597 22.1016C308.167 22.5492 307.809 23.0505 307.522 23.6055C307.236 24.1426 307.003 24.7065 306.824 25.2974C306.663 25.8882 306.547 26.4969 306.475 27.1235C306.421 27.7323 306.395 28.332 306.395 28.9229C306.395 30.57 306.556 32.1007 306.878 33.5151C307.218 34.9295 307.585 36.3171 307.979 37.6777C308.391 39.0384 308.758 40.3991 309.08 41.7598C309.42 43.1383 309.59 44.5975 309.59 46.1372Z" fill="white"/>
</svg>
