<svg width="28" height="28" viewBox="0 0 28 28" fill="none" xmlns="http://www.w3.org/2000/svg">
<g clip-path="url(#clip0_833_195)">
<path d="M18.8025 4.59912H9.60475C7.06485 4.59912 5.00586 6.65812 5.00586 9.19802V18.3958C5.00586 20.9357 7.06485 22.9947 9.60475 22.9947H18.8025C21.3424 22.9947 23.4014 20.9357 23.4014 18.3958V9.19802C23.4014 6.65812 21.3424 4.59912 18.8025 4.59912Z" stroke="white" stroke-width="1.72459" stroke-linecap="round" stroke-linejoin="round"/>
<path d="M14.2031 17.246C16.108 17.246 17.6522 15.7018 17.6522 13.7968C17.6522 11.8919 16.108 10.3477 14.2031 10.3477C12.2982 10.3477 10.7539 11.8919 10.7539 13.7968C10.7539 15.7018 12.2982 17.246 14.2031 17.246Z" stroke="white" stroke-width="1.72459" stroke-linecap="round" stroke-linejoin="round"/>
<path d="M19.377 8.62305V8.62405" stroke="white" stroke-width="1.72459" stroke-linecap="round" stroke-linejoin="round"/>
</g>
<defs>
<clipPath id="clip0_833_195">
<rect width="27.5934" height="27.5934" fill="white" transform="translate(0.40625)"/>
</clipPath>
</defs>
</svg>
